<svg width="100" height="100" viewBox="0 0 100 100" fill="none" xmlns="http://www.w3.org/2000/svg">
<path d="M100 50C100 77.6143 77.6142 100 50 100C22.3858 100 0 77.6143 0 50C0 22.3858 22.3858 2.06818e-05 50 2.06818e-05C77.6142 2.06818e-05 100 22.3858 100 50Z" fill="#E9AEE8" fill-opacity="0.87"/>
<path d="M100.004 50.0021C100.004 59.8916 97.0717 69.559 91.5774 77.7818C86.0831 86.0046 78.2738 92.4135 69.1371 96.198C60.0004 99.9826 49.9467 100.973 40.2472 99.0434C30.5477 97.1141 21.6382 92.3519 14.6453 85.3589C7.65238 78.366 2.89014 69.4565 0.960799 59.757C-0.968543 50.0576 0.0216651 40.0038 3.80621 30.8671C7.59075 21.7304 13.9996 13.9212 22.2224 8.42688C30.4453 2.93257 40.1126 0 50.0021 0C56.5685 0 63.0706 1.29334 69.1371 3.80618C75.2036 6.31903 80.7158 10.0022 85.359 14.6453C90.0021 19.2884 93.6852 24.8006 96.1981 30.8671C98.7109 36.9337 100.004 43.4357 100.004 50.0021ZM79.8379 45.1579C79.8378 43.286 79.3138 41.4514 78.3252 39.8618C77.3366 38.2722 75.9228 36.991 74.2439 36.1632C72.565 35.3353 70.6879 34.9939 68.825 35.1774C66.962 35.361 65.1877 36.0623 63.7026 37.2019C62.2175 38.3415 61.081 39.874 60.4217 41.626C59.7624 43.3779 59.6065 45.2795 59.9717 47.1154C60.337 48.9514 61.2087 50.6485 62.4884 52.0147C63.768 53.381 65.4045 54.3618 67.2127 54.8463V64.4147C67.1386 67.7384 65.7663 70.901 63.3894 73.2254C61.0126 75.5498 57.8203 76.8513 54.4958 76.8513C51.1713 76.8513 47.979 75.5498 45.6022 73.2254C43.2254 70.901 41.853 67.7384 41.779 64.4147V62.3053C45.7557 61.6825 49.3796 59.661 51.9985 56.6044C54.6175 53.5477 56.0596 49.6567 56.0653 45.6316V32.1158C56.0658 30.8843 55.7769 29.6699 55.2218 28.5706C54.6666 27.4713 53.8609 26.518 52.8695 25.7874C52.8524 24.5313 52.4169 23.3168 51.632 22.336C50.847 21.3552 49.7574 20.6643 48.5355 20.3724C47.3137 20.0805 46.0294 20.2045 44.886 20.7246C43.7425 21.2447 42.8051 22.1313 42.2221 23.244C41.6392 24.3568 41.444 25.6322 41.6674 26.8684C41.8908 28.1045 42.5201 29.2309 43.4556 30.0693C44.3912 30.9076 45.5796 31.41 46.8328 31.497C48.086 31.584 49.3324 31.2505 50.3748 30.5495C50.7034 31.0056 50.8802 31.5536 50.88 32.1158V45.6316C50.88 47.1672 50.5776 48.6878 49.9899 50.1066C49.4022 51.5253 48.5409 52.8144 47.455 53.9003C46.3692 54.9861 45.0801 55.8475 43.6613 56.4351C42.2426 57.0228 40.722 57.3253 39.1863 57.3253C37.6507 57.3253 36.1301 57.0228 34.7114 56.4351C33.2926 55.8475 32.0035 54.9861 30.9177 53.9003C29.8318 52.8144 28.9704 51.5253 28.3828 50.1066C27.7951 48.6878 27.4927 47.1672 27.4927 45.6316V32.1158C27.4923 31.4844 27.7161 30.8734 28.1242 30.3916C29.1309 31.1474 30.361 31.5455 31.6196 31.5229C32.8782 31.5002 34.0932 31.0582 35.0721 30.2667C36.0509 29.4753 36.7376 28.3797 37.0232 27.1538C37.3089 25.9278 37.1771 24.6416 36.6488 23.499C36.1206 22.3564 35.2261 21.4228 34.1071 20.8463C32.9881 20.2697 31.7086 20.0832 30.4716 20.3162C29.2346 20.5493 28.1107 21.1885 27.2782 22.1327C26.4457 23.0769 25.9521 24.2719 25.8758 25.5284C24.78 26.2429 23.8798 27.2196 23.2567 28.3698C22.6336 29.5201 22.3073 30.8076 22.3074 32.1158V45.6316C22.3131 49.6567 23.7552 53.5477 26.3741 56.6044C28.9931 59.661 32.617 61.6825 36.5937 62.3053V64.4147C36.5937 66.7661 37.0568 69.0944 37.9567 71.2668C38.8565 73.4392 40.1754 75.413 41.838 77.0757C43.5007 78.7383 45.4746 80.0572 47.6469 80.957C49.8193 81.8569 52.1476 82.32 54.499 82.32C56.8503 82.32 59.1787 81.8569 61.351 80.957C63.5234 80.0572 65.4973 78.7383 67.1599 77.0757C68.8226 75.413 70.1415 73.4392 71.0413 71.2668C71.9411 69.0944 72.4042 66.7661 72.4042 64.4147V54.8463C74.5359 54.2729 76.4192 53.0132 77.763 51.2619C79.1067 49.5106 79.8359 47.3653 79.8379 45.1579ZM74.6527 45.1579C74.6527 46.116 74.3685 47.0526 73.8363 47.8492C73.304 48.6458 72.5474 49.2667 71.6622 49.6334C70.7771 50 69.8031 50.0959 68.8634 49.909C67.9237 49.7221 67.0605 49.2607 66.3831 48.5833C65.7056 47.9058 65.2442 47.0426 65.0573 46.103C64.8704 45.1633 64.9663 44.1893 65.333 43.3041C65.6996 42.4189 66.3205 41.6624 67.1171 41.1301C67.9138 40.5978 68.8503 40.3137 69.8084 40.3137C71.0927 40.3154 72.3239 40.8263 73.232 41.7344C74.1401 42.6425 74.651 43.8736 74.6527 45.1579Z" fill="black"/>
</svg>
