<svg width="75" height="75" viewBox="0 0 75 75" fill="none" xmlns="http://www.w3.org/2000/svg">
<path d="M74.9968 37.4984C74.9968 58.2082 58.2082 74.9968 37.4984 74.9968C16.7886 74.9968 0 58.2082 0 37.4984C0 16.7886 16.7886 1.55107e-05 37.4984 1.55107e-05C58.2082 1.55107e-05 74.9968 16.7886 74.9968 37.4984Z" fill="black"/>
<path d="M75 37.5C75 44.9168 72.8007 52.167 68.6801 58.3339C64.5596 64.5007 58.7029 69.3072 51.8506 72.1455C44.9984 74.9837 37.4584 75.7264 30.1841 74.2794C22.9098 72.8325 16.228 69.261 10.9835 64.0165C5.73904 58.772 2.16751 52.0902 0.720569 44.8159C-0.726377 37.5416 0.0162481 30.0016 2.85453 23.1494C5.69282 16.2971 10.4993 10.4404 16.6661 6.31989C22.833 2.19934 30.0832 0 37.5 0C42.4246 0 47.3009 0.969967 51.8506 2.85452C56.4003 4.73907 60.5343 7.5013 64.0165 10.9835C67.4987 14.4657 70.2609 18.5997 72.1455 23.1494C74.03 27.6991 75 32.5754 75 37.5ZM59.8759 33.867C59.8758 32.4631 59.4828 31.0872 58.7414 29.8951C58 28.703 56.9397 27.7421 55.6806 27.1212C54.4214 26.5004 53.0136 26.2443 51.6165 26.382C50.2194 26.5196 48.8887 27.0456 47.7749 27.9002C46.6612 28.7549 45.8088 29.9042 45.3144 31.2181C44.8199 32.5321 44.703 33.9582 44.9769 35.3351C45.2508 36.712 45.9046 37.9848 46.8643 39.0094C47.824 40.034 49.0513 40.7696 50.4074 41.133V48.309C50.3518 50.8016 49.3226 53.1735 47.5401 54.9167C45.7575 56.6599 43.3634 57.636 40.8701 57.636C38.3769 57.636 35.9827 56.6599 34.2002 54.9167C32.4177 53.1735 31.3885 50.8016 31.3329 48.309V46.727C34.3153 46.2599 37.0331 44.7438 38.9973 42.4515C40.9614 40.1591 42.0429 37.241 42.0472 34.2222V24.0858C42.0476 23.1622 41.8309 22.2515 41.4146 21.4271C40.9982 20.6026 40.3939 19.8876 39.6504 19.3397C39.6376 18.3977 39.311 17.4868 38.7223 16.7513C38.1336 16.0158 37.3164 15.4975 36.4001 15.2787C35.4838 15.0598 34.5206 15.1527 33.663 15.5428C32.8055 15.9328 32.1025 16.5977 31.6653 17.4323C31.2281 18.2668 31.0817 19.2233 31.2492 20.1504C31.4168 21.0775 31.8887 21.9223 32.5903 22.551C33.292 23.1797 34.1832 23.5565 35.1231 23.6217C36.0629 23.687 36.9977 23.4369 37.7795 22.9111C38.026 23.2532 38.1585 23.6642 38.1584 24.0858V34.2222C38.1584 35.3739 37.9316 36.5143 37.4908 37.5783C37.0501 38.6423 36.4041 39.6091 35.5898 40.4235C34.7754 41.2378 33.8086 41.8838 32.7446 42.3246C31.6806 42.7653 30.5402 42.9921 29.3885 42.9921C28.2368 42.9921 27.0964 42.7653 26.0324 42.3246C24.9684 41.8838 24.0016 41.2378 23.1873 40.4235C22.3729 39.6091 21.7269 38.6423 21.2862 37.5783C20.8455 36.5143 20.6186 35.3739 20.6186 34.2222V24.0858C20.6184 23.6123 20.7862 23.154 21.0923 22.7927C21.8472 23.3595 22.7698 23.6581 23.7137 23.6411C24.6576 23.6242 25.5688 23.2926 26.303 22.6991C27.0371 22.1055 27.552 21.2839 27.7663 20.3645C27.9805 19.445 27.8816 18.4804 27.4855 17.6235C27.0893 16.7666 26.4184 16.0664 25.5792 15.6341C24.74 15.2017 23.7805 15.0618 22.8527 15.2365C21.925 15.4113 21.0821 15.8907 20.4578 16.5988C19.8334 17.3069 19.4633 18.2032 19.406 19.1455C18.5842 19.6814 17.9091 20.4138 17.4418 21.2765C16.9744 22.1391 16.7297 23.1047 16.7298 24.0858V34.2222C16.7341 37.241 17.8156 40.1591 19.7798 42.4515C21.7439 44.7438 24.4617 46.2599 27.4441 46.727V48.309C27.4441 50.0724 27.7915 51.8186 28.4663 53.4478C29.1411 55.077 30.1303 56.5574 31.3772 57.8043C32.6241 59.0512 34.1045 60.0404 35.7337 60.7152C37.3629 61.3901 39.1091 61.7374 40.8725 61.7374C42.6359 61.7374 44.3821 61.3901 46.0113 60.7152C47.6405 60.0404 49.1209 59.0512 50.3678 57.8043C51.6147 56.5574 52.6039 55.077 53.2787 53.4478C53.9535 51.8186 54.3009 50.0724 54.3009 48.309V41.133C55.8995 40.703 57.312 39.7582 58.3197 38.4448C59.3275 37.1314 59.8744 35.5225 59.8759 33.867ZM55.9871 33.867C55.9871 34.5855 55.774 35.2879 55.3748 35.8854C54.9756 36.4828 54.4082 36.9485 53.7444 37.2234C53.0806 37.4984 52.3501 37.5704 51.6453 37.4302C50.9406 37.29 50.2933 36.944 49.7852 36.4359C49.2771 35.9278 48.9311 35.2805 48.7909 34.5758C48.6507 33.871 48.7227 33.1405 48.9977 32.4767C49.2726 31.8129 49.7383 31.2455 50.3357 30.8463C50.9332 30.4471 51.6356 30.234 52.3541 30.234C53.3173 30.2352 54.2406 30.6184 54.9217 31.2994C55.6027 31.9805 55.9859 32.9038 55.9871 33.867Z" fill="#FF8DFE"/>
</svg>
