<svg width="100" height="100" viewBox="0 0 100 100" fill="none" xmlns="http://www.w3.org/2000/svg">
<path d="M99.9958 49.9979C99.9958 77.611 77.611 99.9958 49.9979 99.9958C22.3848 99.9958 0 77.611 0 49.9979C0 22.3848 22.3848 2.06809e-05 49.9979 2.06809e-05C77.611 2.06809e-05 99.9958 22.3848 99.9958 49.9979Z" fill="black"/>
<path d="M100 50C100 59.8891 97.0676 69.556 91.5735 77.7785C86.0794 86.0009 78.2705 92.4096 69.1342 96.194C59.9979 99.9783 49.9445 100.969 40.2455 99.0392C30.5465 97.11 21.6373 92.3479 14.6447 85.3553C7.65206 78.3627 2.89002 69.4536 0.960758 59.7545C-0.968502 50.0555 0.0216642 40.0021 3.80604 30.8658C7.59043 21.7295 13.9991 13.9206 22.2215 8.42652C30.444 2.93245 40.111 0 50 0C56.5661 0 63.0679 1.29329 69.1342 3.80602C75.2005 6.31876 80.7124 10.0017 85.3553 14.6447C89.9983 19.2876 93.6812 24.7995 96.194 30.8658C98.7067 36.9321 100 43.4339 100 50ZM79.8345 45.156C79.8344 43.2841 79.3104 41.4497 78.3219 39.8601C77.3333 38.2706 75.9196 36.9895 74.2408 36.1617C72.5619 35.3338 70.6849 34.9924 68.822 35.176C66.9592 35.3595 65.1849 36.0607 63.6999 37.2003C62.2149 38.3399 61.0785 39.8723 60.4191 41.6242C59.7598 43.3761 59.604 45.2775 59.9692 47.1134C60.3344 48.9493 61.2061 50.6463 62.4857 52.0125C63.7653 53.3787 65.4017 54.3595 67.2098 54.844V64.412C67.1357 67.7355 65.7635 70.8979 63.3868 73.2223C61.0101 75.5466 57.8178 76.8481 54.4935 76.8481C51.1692 76.8481 47.977 75.5466 45.6003 73.2223C43.2236 70.8979 41.8513 67.7355 41.7772 64.412V62.3026C45.7537 61.6799 49.3775 59.6584 51.9963 56.602C54.6152 53.5455 56.0572 49.6546 56.0629 45.6296V32.1144C56.0635 30.883 55.7745 29.6687 55.2194 28.5694C54.6643 27.4702 53.8586 26.5168 52.8673 25.7863C52.8502 24.5302 52.4147 23.3158 51.6298 22.3351C50.8448 21.3543 49.7553 20.6634 48.5335 20.3715C47.3117 20.0797 46.0275 20.2036 44.8841 20.7237C43.7406 21.2438 42.8033 22.1303 42.2204 23.243C41.6374 24.3558 41.4422 25.6311 41.6656 26.8672C41.889 28.1033 42.5183 29.2297 43.4538 30.068C44.3893 30.9063 45.5776 31.4087 46.8308 31.4956C48.0839 31.5826 49.3303 31.2492 50.3726 30.5482C50.7013 31.0043 50.878 31.5523 50.8779 32.1144V45.6296C50.8779 47.1652 50.5754 48.6858 49.9878 50.1044C49.4001 51.5231 48.5388 52.8122 47.453 53.898C46.3672 54.9838 45.0782 55.8451 43.6595 56.4327C42.2408 57.0204 40.7203 57.3228 39.1847 57.3228C37.6491 57.3228 36.1286 57.0204 34.7099 56.4327C33.2912 55.8451 32.0022 54.9838 30.9163 53.898C29.8305 52.8122 28.9692 51.5231 28.3816 50.1044C27.7939 48.6858 27.4915 47.1652 27.4915 45.6296V32.1144C27.4911 31.4831 27.7149 30.8721 28.123 30.3903C29.1297 31.146 30.3597 31.5441 31.6183 31.5215C32.8768 31.4989 34.0918 31.0569 35.0706 30.2654C36.0494 29.474 36.7361 28.3785 37.0217 27.1526C37.3073 25.9267 37.1755 24.6405 36.6473 23.498C36.1191 22.3555 35.2246 21.4219 34.1056 20.8454C32.9867 20.2689 31.7073 20.0823 30.4703 20.3154C29.2333 20.5484 28.1095 21.1876 27.277 22.1318C26.4446 23.0759 25.951 24.2709 25.8747 25.5273C24.7789 26.2418 23.8787 27.2184 23.2557 28.3686C22.6326 29.5188 22.3063 30.8063 22.3064 32.1144V45.6296C22.3121 49.6546 23.7542 53.5455 26.373 56.602C28.9919 59.6584 32.6156 61.6799 36.5922 62.3026V64.412C36.5922 66.7633 37.0553 69.0915 37.9551 71.2638C38.8548 73.436 40.1737 75.4098 41.8363 77.0724C43.4989 78.735 45.4726 80.0538 47.6449 80.9536C49.8172 81.8534 52.1454 82.3165 54.4967 82.3165C56.8479 82.3165 59.1761 81.8534 61.3484 80.9536C63.5207 80.0538 65.4945 78.735 67.1571 77.0724C68.8196 75.4098 70.1385 73.436 71.0383 71.2638C71.9381 69.0915 72.4012 66.7633 72.4012 64.412V54.844C74.5327 54.2706 76.416 53.0109 77.7597 51.2597C79.1033 49.5085 79.8326 47.3633 79.8345 45.156ZM74.6495 45.156C74.6495 46.114 74.3654 47.0506 73.8331 47.8472C73.3009 48.6438 72.5443 49.2646 71.6592 49.6313C70.7741 49.9979 69.8001 50.0938 68.8605 49.9069C67.9208 49.72 67.0577 49.2587 66.3803 48.5812C65.7028 47.9038 65.2415 47.0406 65.0546 46.101C64.8677 45.1614 64.9636 44.1874 65.3302 43.3023C65.6968 42.4171 66.3177 41.6606 67.1143 41.1283C67.9109 40.5961 68.8474 40.312 69.8055 40.312C71.0897 40.3136 72.3208 40.8245 73.2289 41.7326C74.1369 42.6407 74.6478 43.8718 74.6495 45.156Z" fill="#FF8DFE"/>
</svg>
