<svg width="31" height="20" viewBox="0 0 31 20" fill="none" xmlns="http://www.w3.org/2000/svg">
<path d="M14.8876 19.7748C13.9088 19.7744 12.9703 19.3728 12.2784 18.6582C11.5865 17.9437 11.1978 16.9748 11.1978 15.9645V15.5336C11.1978 15.4715 11.2217 15.412 11.2643 15.3681C11.3068 15.3242 11.3645 15.2995 11.4246 15.2995H12.1051C12.1653 15.2995 12.223 15.3242 12.2655 15.3681C12.3081 15.412 12.332 15.4715 12.332 15.5336V15.9645C12.332 17.4193 13.4782 18.6041 14.8876 18.6041C16.2969 18.6041 17.4447 17.4193 17.4447 15.9645V7.20896C17.4447 5.55589 18.7482 4.21033 20.3496 4.21033C21.951 4.21033 23.2561 5.55589 23.2561 7.20896V8.32818C23.2561 8.39028 23.2322 8.44984 23.1896 8.49375C23.1471 8.53766 23.0894 8.56233 23.0292 8.56233H22.3487C22.2886 8.56233 22.2309 8.53766 22.1883 8.49375C22.1458 8.44984 22.1219 8.39028 22.1219 8.32818V7.20896C22.1219 6.20057 21.3265 5.38106 20.3496 5.38106C19.8801 5.38147 19.4299 5.57419 19.0979 5.9169C18.7659 6.2596 18.5792 6.7243 18.5788 7.20896V15.9645C18.5788 16.975 18.1899 17.9442 17.4977 18.6588C16.8054 19.3734 15.8666 19.7748 14.8876 19.7748ZM11.6515 15.7678V15.9645C11.6422 16.4093 11.719 16.8516 11.8775 17.2654C12.036 17.6792 12.2729 18.0562 12.5744 18.3742C12.8759 18.6922 13.2359 18.9449 13.6332 19.1174C14.0306 19.2899 14.4573 19.3787 14.8883 19.3787C15.3194 19.3787 15.7461 19.2899 16.1434 19.1174C16.5408 18.9449 16.9008 18.6922 17.2023 18.3742C17.5038 18.0562 17.7407 17.6792 17.8992 17.2654C18.0577 16.8516 18.1345 16.4093 18.1252 15.9645V7.20896C18.1252 5.94301 19.1232 4.91277 20.3496 4.91277C21.576 4.91277 22.5756 5.94301 22.5756 7.20896V8.09403H22.8024V7.20896C22.8024 5.81345 21.7015 4.67862 20.3496 4.67862C18.9977 4.67862 17.8984 5.81345 17.8984 7.20896V15.9645C17.8984 17.6784 16.548 19.0724 14.8876 19.0724C13.2272 19.0724 11.8783 17.6784 11.8783 15.9645V15.7678H11.6515Z" fill="#FF9CFE"/>
<path d="M11.7604 13.7682L11.6031 13.7651C11.5832 13.7639 11.5645 13.7547 11.5509 13.7396C11.5374 13.7245 11.5301 13.7045 11.5305 13.6839C11.5309 13.6736 11.5332 13.6636 11.5374 13.6543C11.5416 13.6449 11.5475 13.6366 11.5548 13.6296C11.5621 13.6226 11.5706 13.6172 11.58 13.6137C11.5893 13.6102 11.5992 13.6085 11.6091 13.609L11.7604 13.6121C12.007 13.6117 12.253 13.5877 12.4953 13.5403C12.5054 13.5374 12.5159 13.5368 12.5263 13.5384C12.5367 13.54 12.5466 13.5438 12.5554 13.5495C12.5643 13.5553 12.5719 13.5628 12.5778 13.5718C12.5837 13.5807 12.5877 13.5908 12.5896 13.6015C12.5915 13.6121 12.5912 13.623 12.5888 13.6335C12.5864 13.6441 12.5819 13.6539 12.5756 13.6626C12.5693 13.6712 12.5613 13.6784 12.5521 13.6837C12.543 13.689 12.5329 13.6922 12.5225 13.6933C12.2713 13.7432 12.0161 13.7683 11.7604 13.7682ZM10.7109 13.6246L10.6912 13.6215C10.3941 13.5371 10.107 13.4187 9.83533 13.2687C9.82644 13.2639 9.81857 13.2574 9.81215 13.2494C9.80573 13.2415 9.80091 13.2323 9.79796 13.2225C9.795 13.2126 9.79398 13.2022 9.79494 13.1919C9.7959 13.1816 9.79884 13.1716 9.80357 13.1625C9.80816 13.1533 9.81451 13.1452 9.82224 13.1386C9.82996 13.132 9.8389 13.1271 9.84851 13.1242C9.85813 13.1213 9.86821 13.1204 9.87816 13.1216C9.88811 13.1229 9.89772 13.1261 9.9064 13.1313C10.168 13.2767 10.4451 13.3904 10.7321 13.47C10.7516 13.4733 10.7692 13.4843 10.781 13.5007C10.7928 13.5172 10.7978 13.5378 10.795 13.558C10.7923 13.5783 10.7819 13.5966 10.7661 13.6091C10.7504 13.6215 10.7306 13.6271 10.7109 13.6246ZM13.3724 13.417C13.3578 13.4169 13.3436 13.4124 13.3315 13.4041C13.3194 13.3958 13.3099 13.384 13.3043 13.3701C13.2961 13.3513 13.2955 13.3299 13.3026 13.3106C13.3097 13.2913 13.3239 13.2756 13.3421 13.2671C13.6135 13.1432 13.8702 12.9877 14.1073 12.8035C14.1235 12.7915 14.1435 12.7864 14.1633 12.7893C14.183 12.7922 14.2009 12.8029 14.2131 12.8191C14.2193 12.8272 14.2238 12.8366 14.2264 12.8465C14.2289 12.8565 14.2295 12.8669 14.2281 12.8771C14.2267 12.8873 14.2233 12.8971 14.2181 12.9059C14.213 12.9147 14.2061 12.9224 14.198 12.9284C13.9517 13.1194 13.6854 13.2811 13.4041 13.4107C13.3941 13.4151 13.3832 13.4172 13.3724 13.417ZM9.12762 12.7442C9.10908 12.7442 9.09123 12.737 9.07772 12.7239C8.84559 12.514 8.63756 12.2772 8.45772 12.0183C8.45195 12.0101 8.44785 12.0007 8.44564 11.9908C8.44343 11.9809 8.44316 11.9706 8.44485 11.9605C8.44654 11.9505 8.45015 11.9409 8.45548 11.9324C8.46081 11.9238 8.46774 11.9164 8.47586 11.9106C8.4839 11.9046 8.49302 11.9002 8.50269 11.8978C8.51237 11.8953 8.52241 11.8949 8.53225 11.8965C8.54208 11.8981 8.55151 11.9017 8.56 11.9071C8.56849 11.9124 8.57587 11.9195 8.58172 11.9278C8.75468 12.1768 8.95457 12.4046 9.17752 12.6068C9.19253 12.6206 9.20172 12.6399 9.20313 12.6606C9.20454 12.6814 9.19807 12.7018 9.18508 12.7177C9.17779 12.7259 9.16892 12.7325 9.15904 12.7371C9.14915 12.7417 9.13845 12.7441 9.12762 12.7442ZM14.8104 12.3024C14.7961 12.3023 14.7821 12.298 14.7701 12.29C14.7581 12.282 14.7485 12.2706 14.7425 12.2572C14.7365 12.2438 14.7343 12.2289 14.7361 12.2142C14.738 12.1996 14.7438 12.1858 14.753 12.1744C14.9442 11.94 15.1091 11.6839 15.2444 11.4111C15.2484 11.4012 15.2544 11.3923 15.2619 11.3848C15.2694 11.3774 15.2783 11.3716 15.288 11.3679C15.2978 11.3642 15.3082 11.3626 15.3186 11.3632C15.3289 11.3638 15.3391 11.3666 15.3484 11.3715C15.3576 11.3763 15.3659 11.3831 15.3725 11.3913C15.3791 11.3996 15.384 11.4092 15.3869 11.4195C15.3898 11.4298 15.3906 11.4406 15.3892 11.4513C15.3879 11.4619 15.3844 11.4722 15.379 11.4814C15.2389 11.7648 15.0679 12.0309 14.8694 12.2743C14.8622 12.2832 14.8532 12.2904 14.843 12.2953C14.8328 12.3001 14.8217 12.3026 14.8104 12.3024ZM8.07816 11.2363C8.06327 11.236 8.04879 11.2313 8.03644 11.2227C8.0241 11.2141 8.01443 11.202 8.00859 11.1879C7.89035 10.8939 7.80462 10.587 7.75303 10.2732C7.75131 10.2631 7.75155 10.2528 7.75375 10.2428C7.75596 10.2329 7.76007 10.2235 7.76584 10.2152C7.77162 10.2069 7.77895 10.1999 7.7874 10.1945C7.79585 10.1892 7.80525 10.1857 7.81503 10.1842C7.8248 10.1822 7.83486 10.1823 7.8446 10.1844C7.85433 10.1866 7.86353 10.1908 7.87161 10.1968C7.8797 10.2028 7.8865 10.2105 7.89159 10.2193C7.89669 10.2282 7.89997 10.238 7.90123 10.2482C7.9514 10.5502 8.03408 10.8455 8.14772 11.1286C8.15165 11.138 8.15371 11.1481 8.15378 11.1584C8.15385 11.1686 8.15192 11.1788 8.14812 11.1882C8.14431 11.1977 8.1387 11.2063 8.13161 11.2135C8.12453 11.2206 8.11612 11.2263 8.10689 11.23C8.09793 11.2345 8.08808 11.2366 8.07816 11.2363ZM15.6301 10.6494L15.6119 10.6462C15.5925 10.6414 15.5757 10.6289 15.5652 10.6113C15.5547 10.5938 15.5514 10.5727 15.556 10.5526C15.6279 10.2553 15.667 9.95049 15.6724 9.64409C15.6724 9.63371 15.6744 9.62343 15.6783 9.61386C15.6822 9.60428 15.6879 9.59561 15.6951 9.58834C15.7023 9.58107 15.7108 9.57536 15.7201 9.57153C15.7295 9.5677 15.7395 9.56583 15.7495 9.56604C15.7693 9.56722 15.788 9.57608 15.8017 9.59084C15.8154 9.6056 15.8233 9.62518 15.8236 9.64565C15.8182 9.96407 15.7781 10.2809 15.7042 10.59C15.6998 10.607 15.6902 10.6219 15.6768 10.6327C15.6634 10.6434 15.647 10.6492 15.6301 10.6494ZM7.77269 9.40526C7.75264 9.40526 7.73341 9.39704 7.71923 9.3824C7.70505 9.36776 7.69708 9.34791 7.69708 9.32721V8.39063C7.69708 8.36993 7.70505 8.35007 7.71923 8.33544C7.73341 8.3208 7.75264 8.31258 7.77269 8.31258C7.79275 8.31258 7.81198 8.3208 7.82616 8.33544C7.84034 8.35007 7.8483 8.36993 7.8483 8.39063V9.32721C7.8483 9.34791 7.84034 9.36776 7.82616 9.3824C7.81198 9.39704 7.79275 9.40526 7.77269 9.40526ZM15.748 8.78555C15.728 8.78555 15.7087 8.77733 15.6945 8.76269C15.6804 8.74806 15.6724 8.72821 15.6724 8.70751V7.77092C15.6724 7.75022 15.6804 7.73037 15.6945 7.71573C15.7087 7.70109 15.728 7.69287 15.748 7.69287C15.7681 7.69287 15.7873 7.70109 15.8015 7.71573C15.8157 7.73037 15.8236 7.75022 15.8236 7.77092V8.70751C15.8236 8.72821 15.8157 8.74806 15.8015 8.76269C15.7873 8.77733 15.7681 8.78555 15.748 8.78555Z" fill="#FF9CFE"/>
<path d="M8.1235 8.00507H7.44302C7.38286 8.00507 7.32516 7.9804 7.28262 7.93649C7.24008 7.89258 7.21619 7.83302 7.21619 7.77092V3.26439C7.21699 2.81891 7.38888 2.39194 7.69418 2.07709C7.99948 1.76223 8.41326 1.58519 8.84482 1.58478C8.90498 1.58478 8.96267 1.60945 9.00521 1.65336C9.04775 1.69727 9.07165 1.75682 9.07165 1.81892V2.52136C9.07165 2.58346 9.04775 2.64302 9.00521 2.68693C8.96267 2.73084 8.90498 2.75551 8.84482 2.75551C8.71394 2.75551 8.58839 2.80907 8.4957 2.90446C8.40301 2.99985 8.35073 3.12928 8.35033 3.26439V7.77092C8.35033 7.83302 8.32643 7.89258 8.2839 7.93649C8.24136 7.9804 8.18366 8.00507 8.1235 8.00507ZM7.66985 7.53678H7.89667V3.26439C7.89747 3.0459 7.96884 2.83392 8.09949 2.66202C8.23014 2.49012 8.4126 2.36811 8.61799 2.31531V2.07649C8.35134 2.13094 8.11118 2.27903 7.93833 2.49559C7.76549 2.71214 7.67062 2.9838 7.66985 3.26439V7.53678Z" fill="#FF9CFE"/>
<path d="M16.0852 8.00507H15.4047C15.3446 8.00507 15.2869 7.9804 15.2443 7.93649C15.2018 7.89258 15.1779 7.83302 15.1779 7.77092V3.26439C15.1779 3.12942 15.126 2.99999 15.0335 2.90456C14.9411 2.80912 14.8157 2.75551 14.6849 2.75551C14.6248 2.75551 14.5671 2.73084 14.5245 2.68693C14.482 2.64302 14.4581 2.58346 14.4581 2.52136V1.81892C14.4581 1.75682 14.482 1.69727 14.5245 1.65336C14.5671 1.60945 14.6248 1.58478 14.6849 1.58478C15.1163 1.58519 15.53 1.76228 15.835 2.07718C16.1401 2.39208 16.3116 2.81905 16.3121 3.26439V7.77092C16.3121 7.83302 16.2882 7.89258 16.2456 7.93649C16.2031 7.9804 16.1454 8.00507 16.0852 8.00507ZM15.6316 7.53678H15.8584V3.26439C15.858 2.98394 15.7634 2.71231 15.5908 2.49572C15.4182 2.27914 15.1783 2.13099 14.9118 2.07649V2.31531C15.117 2.36816 15.2993 2.49023 15.4297 2.66216C15.5601 2.83409 15.6311 3.04604 15.6316 3.26439V7.53678Z" fill="#FF9CFE"/>
<path d="M12.6314 15.7678H10.8984C10.8382 15.7678 10.7805 15.7432 10.738 15.6992C10.6955 15.6553 10.6716 15.5958 10.6716 15.5337V14.3629C9.60794 14.1074 8.65941 13.4877 7.98039 12.6048C7.30137 11.7219 6.93183 10.6278 6.93192 9.50051V7.77095C6.93192 7.70885 6.95581 7.64929 6.99835 7.60538C7.04089 7.56147 7.09859 7.5368 7.15874 7.5368H8.3685C8.42854 7.53721 8.486 7.56201 8.52846 7.60584C8.57091 7.64966 8.59493 7.70898 8.59533 7.77095V9.50051C8.59533 10.3682 8.92926 11.2004 9.52367 11.814C10.1181 12.4276 10.9243 12.7723 11.7649 12.7723C12.6055 12.7723 13.4117 12.4276 14.0061 11.814C14.6005 11.2004 14.9345 10.3682 14.9345 9.50051V7.77095C14.9348 7.70898 14.9589 7.64966 15.0013 7.60584C15.0438 7.56201 15.1012 7.53721 15.1613 7.5368H16.371C16.4312 7.5368 16.4889 7.56147 16.5314 7.60538C16.574 7.64929 16.5979 7.70885 16.5979 7.77095V9.50051C16.598 10.6278 16.2284 11.7219 15.5494 12.6048C14.8704 13.4877 13.9218 14.1074 12.8582 14.3629V15.5337C12.8582 15.5958 12.8343 15.6553 12.7918 15.6992C12.7492 15.7432 12.6915 15.7678 12.6314 15.7678ZM11.1252 15.2995H12.4045V14.1725C12.4044 14.118 12.4228 14.0652 12.4565 14.0232C12.4902 13.9813 12.5371 13.9529 12.589 13.943C13.5894 13.7443 14.4914 13.1921 15.1402 12.3814C15.7889 11.5707 16.1439 10.5521 16.1442 9.50051V8.0051H15.3881V9.50051C15.3881 9.99167 15.2944 10.478 15.1123 10.9318C14.9302 11.3856 14.6633 11.7979 14.3269 12.1452C13.9904 12.4925 13.591 12.768 13.1514 12.9559C12.7118 13.1439 12.2407 13.2406 11.7649 13.2406C11.2891 13.2406 10.8179 13.1439 10.3783 12.9559C9.93875 12.768 9.53933 12.4925 9.20289 12.1452C8.86644 11.7979 8.59956 11.3856 8.41747 10.9318C8.23539 10.478 8.14167 9.99167 8.14167 9.50051V8.0051H7.38557V9.50051C7.38583 10.5521 7.74084 11.5707 8.38962 12.3814C9.03839 13.1921 9.94043 13.7443 10.9407 13.943C10.9927 13.9529 11.0396 13.9813 11.0733 14.0232C11.107 14.0652 11.1254 14.118 11.1252 14.1725V15.2995Z" fill="#FF9CFE"/>
<path d="M23.8776 8.67474C24.1422 9.06524 24.2651 9.53947 24.2247 10.0142C24.1844 10.4889 23.9834 10.9338 23.6569 11.2708C23.3305 11.6078 22.8995 11.8153 22.4396 11.8569C21.9797 11.8986 21.5203 11.7717 21.142 11.4985C21.3065 11.7412 21.5204 11.9438 21.7689 12.092C22.0173 12.2402 22.2941 12.3304 22.58 12.3563C22.8658 12.3821 23.1536 12.3431 23.4233 12.2418C23.6929 12.1405 23.9378 11.9795 24.1406 11.7701C24.3435 11.5607 24.4995 11.3079 24.5976 11.0296C24.6957 10.7513 24.7335 10.4541 24.7085 10.1591C24.6834 9.86405 24.596 9.57826 24.4525 9.32182C24.3089 9.06537 24.1127 8.84451 23.8776 8.67474Z" fill="#FF9CFE"/>
<path d="M22.7525 12.599C21.5457 12.599 20.5628 11.5844 20.5628 10.3372C20.5628 9.08995 21.5457 8.07532 22.7525 8.07532C23.9592 8.07532 24.9436 9.08995 24.9436 10.3372C24.9436 11.5844 23.9607 12.599 22.7525 12.599ZM22.7525 8.54361C21.7952 8.54361 21.0165 9.34907 21.0165 10.3372C21.0165 11.3253 21.7952 12.1307 22.7525 12.1307C23.2133 12.1307 23.6552 11.9418 23.9811 11.6054C24.3069 11.2691 24.49 10.8129 24.49 10.3372C24.49 9.86149 24.3069 9.40529 23.9811 9.06893C23.6552 8.73257 23.2133 8.54361 22.7525 8.54361Z" fill="#FF9CFE"/>
<path d="M23.0882 9.99217V9.30066H22.4183V9.99217H21.7484V10.6837H22.4183V11.3736H23.0882V10.6837H23.7581V9.99217H23.0882Z" fill="#FF9CFE"/>
<path d="M9.489 3.64368C9.37462 3.64368 9.26136 3.62042 9.15568 3.57524C9.05 3.53005 8.95398 3.46382 8.8731 3.38033C8.79222 3.29684 8.72806 3.19772 8.68428 3.08863C8.64051 2.97955 8.61798 2.86263 8.61798 2.74456V1.59568C8.62735 1.36349 8.7233 1.14403 8.88576 0.983168C9.04823 0.822303 9.26464 0.732483 9.48976 0.732483C9.71488 0.732483 9.9313 0.822303 10.0938 0.983168C10.2562 1.14403 10.3522 1.36349 10.3615 1.59568V2.74456C10.3611 2.98316 10.269 3.21185 10.1054 3.38043C9.94186 3.549 9.72015 3.64368 9.489 3.64368ZM9.489 1.16485C9.37844 1.16526 9.27251 1.21078 9.19432 1.29149C9.11614 1.3722 9.07204 1.48154 9.07164 1.59568V2.74456C9.07805 2.85454 9.12489 2.95785 9.2026 3.03338C9.28031 3.10892 9.38302 3.15098 9.48976 3.15098C9.5965 3.15098 9.69921 3.10892 9.77692 3.03338C9.85463 2.95785 9.90147 2.85454 9.90788 2.74456V1.59568C9.90748 1.48127 9.86317 1.37169 9.78466 1.29094C9.70615 1.21019 9.59984 1.16485 9.489 1.16485Z" fill="#FF9CFE"/>
<path d="M14.0407 3.64368C13.8096 3.64368 13.5879 3.549 13.4243 3.38043C13.2607 3.21185 13.1686 2.98316 13.1682 2.74456V1.59568C13.1776 1.36349 13.2735 1.14403 13.436 0.983168C13.5985 0.822303 13.8149 0.732483 14.04 0.732483C14.2651 0.732483 14.4815 0.822303 14.644 0.983168C14.8065 1.14403 14.9024 1.36349 14.9118 1.59568V2.74456C14.9118 2.98302 14.82 3.21171 14.6567 3.38033C14.4933 3.54895 14.2718 3.64368 14.0407 3.64368ZM14.0407 1.16485C13.9299 1.16485 13.8236 1.21019 13.7451 1.29094C13.6666 1.37169 13.6223 1.48127 13.6219 1.59568V2.74456C13.6283 2.85454 13.6751 2.95785 13.7528 3.03338C13.8305 3.10892 13.9333 3.15098 14.04 3.15098C14.1467 3.15098 14.2494 3.10892 14.3272 3.03338C14.4049 2.95785 14.4517 2.85454 14.4581 2.74456V1.59568C14.4577 1.48154 14.4136 1.3722 14.3354 1.29149C14.2572 1.21078 14.1513 1.16526 14.0407 1.16485Z" fill="#FF9CFE"/>
</svg>
