<svg width="31" height="20" viewBox="0 0 31 20" fill="none" xmlns="http://www.w3.org/2000/svg">
<path d="M15.3679 19.7748C14.3576 19.7744 13.3888 19.3728 12.6746 18.6582C11.9603 17.9437 11.5591 16.9748 11.5591 15.9645V15.5336C11.5591 15.4715 11.5838 15.412 11.6277 15.3681C11.6716 15.3242 11.7311 15.2995 11.7932 15.2995H12.4957C12.5578 15.2995 12.6173 15.3242 12.6612 15.3681C12.7051 15.412 12.7298 15.4715 12.7298 15.5336V15.9645C12.7298 17.4193 13.913 18.6041 15.3679 18.6041C16.8227 18.6041 18.0075 17.4193 18.0075 15.9645V7.20896C18.0075 5.55589 19.353 4.21033 21.0061 4.21033C22.6592 4.21033 24.0063 5.55589 24.0063 7.20896V8.32818C24.0063 8.39028 23.9816 8.44984 23.9377 8.49375C23.8938 8.53766 23.8343 8.56233 23.7722 8.56233H23.0697C23.0076 8.56233 22.9481 8.53766 22.9041 8.49375C22.8602 8.44984 22.8356 8.39028 22.8356 8.32818V7.20896C22.8356 6.20057 22.0145 5.38106 21.0061 5.38106C20.5214 5.38147 20.0567 5.57419 19.714 5.9169C19.3713 6.2596 19.1786 6.7243 19.1782 7.20896V15.9645C19.1782 16.975 18.7768 17.9442 18.0622 18.6588C17.3476 19.3734 16.3784 19.7748 15.3679 19.7748ZM12.0274 15.7678V15.9645C12.0178 16.4093 12.0971 16.8516 12.2607 17.2654C12.4243 17.6792 12.6688 18.0562 12.9801 18.3742C13.2913 18.6922 13.6629 18.9449 14.073 19.1174C14.4832 19.2899 14.9237 19.3787 15.3686 19.3787C15.8136 19.3787 16.2541 19.2899 16.6643 19.1174C17.0744 18.9449 17.446 18.6922 17.7572 18.3742C18.0684 18.0562 18.313 17.6792 18.4766 17.2654C18.6402 16.8516 18.7195 16.4093 18.7099 15.9645V7.20896C18.7099 5.94301 19.7402 4.91277 21.0061 4.91277C22.2721 4.91277 23.3039 5.94301 23.3039 7.20896V8.09403H23.538V7.20896C23.538 5.81345 22.4016 4.67862 21.0061 4.67862C19.6106 4.67862 18.4758 5.81345 18.4758 7.20896V15.9645C18.4758 17.6784 17.0818 19.0724 15.3679 19.0724C13.6539 19.0724 12.2615 17.6784 12.2615 15.9645V15.7678H12.0274Z" fill="#474747"/>
<path d="M12.1397 13.7682L11.9773 13.7651C11.9567 13.7639 11.9375 13.7547 11.9235 13.7396C11.9095 13.7245 11.9019 13.7045 11.9024 13.6839C11.9028 13.6736 11.9052 13.6636 11.9095 13.6543C11.9138 13.6449 11.9199 13.6366 11.9274 13.6296C11.935 13.6226 11.9438 13.6172 11.9534 13.6137C11.9631 13.6102 11.9733 13.6085 11.9836 13.609L12.1397 13.6121C12.3942 13.6117 12.6482 13.5877 12.8983 13.5403C12.9087 13.5374 12.9196 13.5368 12.9303 13.5384C12.941 13.54 12.9512 13.5438 12.9604 13.5495C12.9695 13.5553 12.9774 13.5628 12.9835 13.5718C12.9895 13.5807 12.9937 13.5908 12.9956 13.6015C12.9976 13.6121 12.9973 13.623 12.9948 13.6335C12.9923 13.6441 12.9877 13.6539 12.9812 13.6626C12.9747 13.6712 12.9664 13.6784 12.957 13.6837C12.9476 13.689 12.9371 13.6922 12.9264 13.6933C12.6671 13.7432 12.4037 13.7683 12.1397 13.7682ZM11.0563 13.6246L11.036 13.6215C10.7293 13.5371 10.433 13.4187 10.1525 13.2687C10.1434 13.2639 10.1352 13.2574 10.1286 13.2494C10.122 13.2415 10.117 13.2323 10.114 13.2225C10.1109 13.2126 10.1098 13.2022 10.1108 13.1919C10.1118 13.1816 10.1149 13.1716 10.1198 13.1625C10.1245 13.1533 10.131 13.1452 10.139 13.1386C10.147 13.132 10.1562 13.1271 10.1661 13.1242C10.1761 13.1213 10.1865 13.1204 10.1967 13.1216C10.207 13.1229 10.2169 13.1261 10.2259 13.1313C10.496 13.2767 10.782 13.3904 11.0782 13.47C11.0984 13.4733 11.1165 13.4843 11.1287 13.5007C11.1409 13.5172 11.1461 13.5378 11.1432 13.558C11.1403 13.5783 11.1296 13.5966 11.1134 13.6091C11.0971 13.6215 11.0766 13.6271 11.0563 13.6246ZM13.8037 13.417C13.7886 13.4169 13.774 13.4124 13.7615 13.4041C13.749 13.3958 13.7392 13.384 13.7334 13.3701C13.725 13.3513 13.7243 13.3299 13.7316 13.3106C13.739 13.2913 13.7536 13.2756 13.7724 13.2671C14.0525 13.1432 14.3176 12.9877 14.5623 12.8035C14.579 12.7915 14.5997 12.7864 14.6201 12.7893C14.6404 12.7922 14.6589 12.8029 14.6716 12.8191C14.6779 12.8272 14.6826 12.8366 14.6852 12.8465C14.6879 12.8565 14.6885 12.8669 14.687 12.8771C14.6856 12.8873 14.6821 12.8971 14.6767 12.9059C14.6714 12.9147 14.6643 12.9224 14.6559 12.9284C14.4017 13.1194 14.1268 13.2811 13.8364 13.4107C13.8261 13.4151 13.8149 13.4172 13.8037 13.417ZM9.42199 12.7442C9.40286 12.7442 9.38443 12.737 9.37048 12.7239C9.13087 12.514 8.91613 12.2772 8.73048 12.0183C8.72453 12.0101 8.72029 12.0007 8.71801 11.9908C8.71573 11.9809 8.71546 11.9706 8.7172 11.9605C8.71895 11.9505 8.72268 11.9409 8.72817 11.9324C8.73367 11.9238 8.74083 11.9164 8.74921 11.9106C8.75751 11.9046 8.76692 11.9002 8.77691 11.8978C8.7869 11.8953 8.79726 11.8949 8.80742 11.8965C8.81757 11.8981 8.82731 11.9017 8.83607 11.9071C8.84483 11.9124 8.85245 11.9195 8.85848 11.9278C9.03703 12.1768 9.24337 12.4046 9.47351 12.6068C9.489 12.6206 9.49848 12.6399 9.49994 12.6606C9.5014 12.6814 9.49471 12.7018 9.48131 12.7177C9.47379 12.7259 9.46463 12.7325 9.45443 12.7371C9.44422 12.7417 9.43318 12.7441 9.42199 12.7442ZM15.2881 12.3024C15.2734 12.3023 15.2589 12.298 15.2465 12.29C15.2341 12.282 15.2242 12.2706 15.218 12.2572C15.2118 12.2438 15.2095 12.2289 15.2114 12.2142C15.2133 12.1996 15.2194 12.1858 15.2288 12.1744C15.4262 11.94 15.5964 11.6839 15.7361 11.4111C15.7403 11.4012 15.7464 11.3923 15.7541 11.3848C15.7619 11.3774 15.7711 11.3716 15.7811 11.3679C15.7912 11.3642 15.8019 11.3626 15.8126 11.3632C15.8234 11.3638 15.8338 11.3666 15.8434 11.3715C15.853 11.3763 15.8615 11.3831 15.8683 11.3913C15.8752 11.3996 15.8802 11.4092 15.8832 11.4195C15.8862 11.4298 15.887 11.4406 15.8856 11.4513C15.8842 11.4619 15.8806 11.4722 15.8751 11.4814C15.7304 11.7648 15.5539 12.0309 15.349 12.2743C15.3416 12.2832 15.3323 12.2904 15.3218 12.2953C15.3112 12.3001 15.2997 12.3026 15.2881 12.3024ZM8.33868 11.2363C8.32332 11.236 8.30836 11.2313 8.29562 11.2227C8.28288 11.2141 8.2729 11.202 8.26687 11.1879C8.14481 10.8939 8.05632 10.587 8.00307 10.2732C8.00129 10.2631 8.00154 10.2528 8.00381 10.2428C8.00608 10.2329 8.01033 10.2235 8.01629 10.2152C8.02226 10.2069 8.02982 10.1999 8.03855 10.1945C8.04727 10.1892 8.05696 10.1857 8.06707 10.1842C8.07715 10.1822 8.08754 10.1823 8.09759 10.1844C8.10763 10.1866 8.11713 10.1908 8.12547 10.1968C8.13382 10.2028 8.14084 10.2105 8.1461 10.2193C8.15136 10.2282 8.15474 10.238 8.15604 10.2482C8.20784 10.5502 8.29318 10.8455 8.41048 11.1286C8.41454 11.138 8.41667 11.1481 8.41675 11.1584C8.41682 11.1686 8.41483 11.1788 8.4109 11.1882C8.40696 11.1977 8.40117 11.2063 8.39386 11.2135C8.38655 11.2206 8.37787 11.2263 8.36834 11.23C8.35909 11.2345 8.34892 11.2366 8.33868 11.2363ZM16.1342 10.6494L16.1155 10.6462C16.0954 10.6414 16.0781 10.6289 16.0673 10.6113C16.0564 10.5938 16.053 10.5727 16.0577 10.5526C16.132 10.2553 16.1723 9.95049 16.1779 9.64409C16.1779 9.63371 16.18 9.62343 16.184 9.61386C16.188 9.60428 16.1939 9.59561 16.2013 9.58834C16.2087 9.58107 16.2175 9.57536 16.2272 9.57153C16.2368 9.5677 16.2471 9.56583 16.2575 9.56604C16.2779 9.56722 16.2972 9.57608 16.3114 9.59084C16.3256 9.6056 16.3336 9.62518 16.334 9.64565C16.3284 9.96407 16.287 10.2809 16.2107 10.59C16.2062 10.607 16.1963 10.6219 16.1825 10.6327C16.1687 10.6434 16.1517 10.6492 16.1342 10.6494ZM8.02336 9.40526C8.00266 9.40526 7.98281 9.39704 7.96817 9.3824C7.95354 9.36776 7.94531 9.34791 7.94531 9.32721V8.39063C7.94531 8.36993 7.95354 8.35007 7.96817 8.33544C7.98281 8.3208 8.00266 8.31258 8.02336 8.31258C8.04406 8.31258 8.06391 8.3208 8.07855 8.33544C8.09319 8.35007 8.10141 8.36993 8.10141 8.39063V9.32721C8.10141 9.34791 8.09319 9.36776 8.07855 9.3824C8.06391 9.39704 8.04406 9.40526 8.02336 9.40526ZM16.2559 8.78555C16.2352 8.78555 16.2154 8.77733 16.2008 8.76269C16.1861 8.74806 16.1779 8.72821 16.1779 8.70751V7.77092C16.1779 7.75022 16.1861 7.73037 16.2008 7.71573C16.2154 7.70109 16.2352 7.69287 16.2559 7.69287C16.2766 7.69287 16.2965 7.70109 16.3111 7.71573C16.3258 7.73037 16.334 7.75022 16.334 7.77092V8.70751C16.334 8.72821 16.3258 8.74806 16.3111 8.76269C16.2965 8.77733 16.2766 8.78555 16.2559 8.78555Z" fill="#474747"/>
<path d="M8.38556 8.00507H7.68312C7.62102 8.00507 7.56147 7.9804 7.51755 7.93649C7.47364 7.89258 7.44897 7.83302 7.44897 7.77092V3.26439C7.4498 2.81891 7.62724 2.39194 7.94238 2.07709C8.25753 1.76223 8.68467 1.58519 9.13015 1.58478C9.19224 1.58478 9.2518 1.60945 9.29571 1.65336C9.33962 1.69727 9.36429 1.75682 9.36429 1.81892V2.52136C9.36429 2.58346 9.33962 2.64302 9.29571 2.68693C9.2518 2.73084 9.19224 2.75551 9.13015 2.75551C8.99504 2.75551 8.86544 2.80907 8.76976 2.90446C8.67408 2.99985 8.62012 3.12928 8.61971 3.26439V7.77092C8.61971 7.83302 8.59504 7.89258 8.55113 7.93649C8.50721 7.9804 8.44766 8.00507 8.38556 8.00507ZM7.91727 7.53678H8.15141V3.26439C8.15223 3.0459 8.22591 2.83392 8.36077 2.66202C8.49563 2.49012 8.68398 2.36811 8.896 2.31531V2.07649C8.62074 2.13094 8.37284 2.27903 8.19442 2.49559C8.01599 2.71214 7.91806 2.9838 7.91727 3.26439V7.53678Z" fill="#474747"/>
<path d="M16.6042 8.00507H15.9017C15.8396 8.00507 15.7801 7.9804 15.7362 7.93649C15.6923 7.89258 15.6676 7.83302 15.6676 7.77092V3.26439C15.6676 3.12942 15.614 2.99999 15.5185 2.90456C15.4231 2.80912 15.2937 2.75551 15.1587 2.75551C15.0966 2.75551 15.0371 2.73084 14.9931 2.68693C14.9492 2.64302 14.9246 2.58346 14.9246 2.52136V1.81892C14.9246 1.75682 14.9492 1.69727 14.9931 1.65336C15.0371 1.60945 15.0966 1.58478 15.1587 1.58478C15.604 1.58519 16.031 1.76228 16.3459 2.07718C16.6608 2.39208 16.8379 2.81905 16.8383 3.26439V7.77092C16.8383 7.83302 16.8136 7.89258 16.7697 7.93649C16.7258 7.9804 16.6663 8.00507 16.6042 8.00507ZM16.1359 7.53678H16.37V3.26439C16.3696 2.98394 16.272 2.71231 16.0938 2.49572C15.9157 2.27914 15.668 2.13099 15.3929 2.07649V2.31531C15.6047 2.36816 15.7929 2.49023 15.9275 2.66216C16.0621 2.83409 16.1354 3.04604 16.1359 3.26439V7.53678Z" fill="#474747"/>
<path d="M13.0388 15.7678H11.25C11.1879 15.7678 11.1283 15.7432 11.0844 15.6992C11.0405 15.6553 11.0158 15.5958 11.0158 15.5337V14.3629C9.91786 14.1074 8.93874 13.4877 8.23782 12.6048C7.53689 11.7219 7.15542 10.6278 7.15552 9.50051V7.77095C7.15552 7.70885 7.18019 7.64929 7.2241 7.60538C7.26801 7.56147 7.32756 7.5368 7.38966 7.5368H8.63844C8.70042 7.53721 8.75974 7.56201 8.80356 7.60584C8.84738 7.64966 8.87218 7.70898 8.87259 7.77095V9.50051C8.87259 10.3682 9.2173 11.2004 9.83088 11.814C10.4445 12.4276 11.2767 12.7723 12.1444 12.7723C13.0121 12.7723 13.8443 12.4276 14.4579 11.814C15.0715 11.2004 15.4162 10.3682 15.4162 9.50051V7.77095C15.4166 7.70898 15.4414 7.64966 15.4852 7.60584C15.5291 7.56201 15.5884 7.53721 15.6503 7.5368H16.8991C16.9612 7.5368 17.0208 7.56147 17.0647 7.60538C17.1086 7.64929 17.1333 7.70885 17.1333 7.77095V9.50051C17.1334 10.6278 16.7519 11.7219 16.051 12.6048C15.35 13.4877 14.3709 14.1074 13.273 14.3629V15.5337C13.273 15.5958 13.2483 15.6553 13.2044 15.6992C13.1605 15.7432 13.1009 15.7678 13.0388 15.7678ZM11.4841 15.2995H12.8047V14.1725C12.8045 14.118 12.8235 14.0652 12.8583 14.0232C12.8931 13.9813 12.9415 13.9529 12.9951 13.943C14.0277 13.7443 14.9588 13.1921 15.6285 12.3814C16.2983 11.5707 16.6647 10.5521 16.665 9.50051V8.0051H15.8845V9.50051C15.8845 9.99167 15.7878 10.478 15.5998 10.9318C15.4118 11.3856 15.1363 11.7979 14.789 12.1452C14.4417 12.4925 14.0294 12.768 13.5757 12.9559C13.1219 13.1439 12.6356 13.2406 12.1444 13.2406C11.6532 13.2406 11.1669 13.1439 10.7131 12.9559C10.2594 12.768 9.84705 12.4925 9.49975 12.1452C9.15245 11.7979 8.87695 11.3856 8.689 10.9318C8.50104 10.478 8.4043 9.99167 8.4043 9.50051V8.0051H7.62381V9.50051C7.62408 10.5521 7.99054 11.5707 8.66024 12.3814C9.32995 13.1921 10.2611 13.7443 11.2937 13.943C11.3473 13.9529 11.3957 13.9813 11.4305 14.0232C11.4653 14.0652 11.4843 14.118 11.4841 14.1725V15.2995Z" fill="#474747"/>
<path d="M24.6478 8.67474C24.9209 9.06524 25.0478 9.53947 25.0062 10.0142C24.9645 10.4889 24.757 10.9338 24.42 11.2708C24.083 11.6078 23.6382 11.8153 23.1634 11.8569C22.6887 11.8986 22.2145 11.7717 21.824 11.4985C21.9937 11.7412 22.2146 11.9438 22.471 12.092C22.7275 12.2402 23.0133 12.3304 23.3083 12.3563C23.6034 12.3821 23.9005 12.3431 24.1788 12.2418C24.4572 12.1405 24.7099 11.9795 24.9193 11.7701C25.1288 11.5607 25.2898 11.3079 25.391 11.0296C25.4923 10.7513 25.5314 10.4541 25.5055 10.1591C25.4796 9.86405 25.3894 9.57826 25.2412 9.32182C25.093 9.06537 24.8905 8.84451 24.6478 8.67474Z" fill="#474747"/>
<path d="M23.4864 12.599C22.2407 12.599 21.2261 11.5844 21.2261 10.3372C21.2261 9.08995 22.2407 8.07532 23.4864 8.07532C24.732 8.07532 25.7482 9.08995 25.7482 10.3372C25.7482 11.5844 24.7336 12.599 23.4864 12.599ZM23.4864 8.54361C22.4983 8.54361 21.6944 9.34907 21.6944 10.3372C21.6944 11.3253 22.4983 12.1307 23.4864 12.1307C23.962 12.1307 24.4182 11.9418 24.7546 11.6054C25.091 11.2691 25.2799 10.8129 25.2799 10.3372C25.2799 9.86149 25.091 9.40529 24.7546 9.06893C24.4182 8.73257 23.962 8.54361 23.4864 8.54361Z" fill="#474747"/>
<path d="M23.833 9.99217V9.30066H23.1415V9.99217H22.45V10.6837H23.1415V11.3736H23.833V10.6837H24.5245V9.99217H23.833Z" fill="#474747"/>
<path d="M9.79512 3.64368C9.67704 3.64368 9.56013 3.62042 9.45104 3.57524C9.34195 3.53005 9.24283 3.46382 9.15934 3.38033C9.07585 3.29684 9.00962 3.19772 8.96444 3.08863C8.91925 2.97955 8.896 2.86263 8.896 2.74456V1.59568C8.90567 1.36349 9.00471 1.14403 9.17241 0.983168C9.34012 0.822303 9.56351 0.732483 9.7959 0.732483C10.0283 0.732483 10.2517 0.822303 10.4194 0.983168C10.5871 1.14403 10.6861 1.36349 10.6958 1.59568V2.74456C10.6954 2.98316 10.6003 3.21185 10.4314 3.38043C10.2626 3.549 10.0337 3.64368 9.79512 3.64368ZM9.79512 1.16485C9.68098 1.16526 9.57164 1.21078 9.49093 1.29149C9.41022 1.3722 9.3647 1.48154 9.36429 1.59568V2.74456C9.37091 2.85454 9.41926 2.95785 9.49948 3.03338C9.57969 3.10892 9.68572 3.15098 9.7959 3.15098C9.90608 3.15098 10.0121 3.10892 10.0923 3.03338C10.1725 2.95785 10.2209 2.85454 10.2275 2.74456V1.59568C10.2271 1.48127 10.1814 1.37169 10.1003 1.29094C10.0193 1.21019 9.90952 1.16485 9.79512 1.16485Z" fill="#474747"/>
<path d="M14.4937 3.64368C14.2551 3.64368 14.0262 3.549 13.8574 3.38043C13.6885 3.21185 13.5934 2.98316 13.593 2.74456V1.59568C13.6027 1.36349 13.7017 1.14403 13.8694 0.983168C14.0371 0.822303 14.2605 0.732483 14.4929 0.732483C14.7253 0.732483 14.9487 0.822303 15.1164 0.983168C15.2841 1.14403 15.3832 1.36349 15.3928 1.59568V2.74456C15.3928 2.98302 15.2981 3.21171 15.1295 3.38033C14.9609 3.54895 14.7322 3.64368 14.4937 3.64368ZM14.4937 1.16485C14.3793 1.16485 14.2695 1.21019 14.1885 1.29094C14.1075 1.37169 14.0617 1.48127 14.0613 1.59568V2.74456C14.0679 2.85454 14.1163 2.95785 14.1965 3.03338C14.2767 3.10892 14.3827 3.15098 14.4929 3.15098C14.6031 3.15098 14.7091 3.10892 14.7893 3.03338C14.8696 2.95785 14.9179 2.85454 14.9245 2.74456V1.59568C14.9241 1.48154 14.8786 1.3722 14.7979 1.29149C14.7172 1.21078 14.6078 1.16526 14.4937 1.16485Z" fill="#474747"/>
</svg>
