<svg width="38" height="22" viewBox="0 0 38 22" fill="none" xmlns="http://www.w3.org/2000/svg">
<path d="M13.6987 7.30048H12.5735V20.579H13.6987V7.30048Z" fill="#E0E1E2"/>
<path d="M25.4267 7.30048H24.3015V20.579H25.4267V7.30048Z" fill="#E0E1E2"/>
<path d="M14.7755 19.5364V3.45978L13.6985 4.07148V20.5786H24.3014V19.5364H14.7755Z" fill="#E0E1E2"/>
<path d="M19 10.3482C20.4671 10.3482 21.6563 9.19734 21.6563 7.77764C21.6563 6.35793 20.4671 5.20703 19 5.20703C17.533 5.20703 16.3438 6.35793 16.3438 7.77764C16.3438 9.19734 17.533 10.3482 19 10.3482Z" fill="#E0E1E2"/>
<path d="M24.3014 20.8477H13.6985C13.6247 20.8477 13.554 20.8194 13.5018 20.7689C13.4497 20.7184 13.4204 20.65 13.4204 20.5786V4.0715C13.4203 4.02468 13.433 3.97866 13.457 3.93805C13.4811 3.89744 13.5158 3.86366 13.5576 3.84009L18.859 0.824605C18.9016 0.799948 18.9503 0.786926 18.9999 0.786926C19.0495 0.786926 19.0982 0.799948 19.1408 0.824605L24.4423 3.84009C24.4841 3.86366 24.5187 3.89744 24.5428 3.93805C24.5669 3.97866 24.5795 4.02468 24.5794 4.0715V20.5786C24.5794 20.65 24.5501 20.7184 24.498 20.7689C24.4459 20.8194 24.3751 20.8477 24.3014 20.8477ZM13.9765 20.3095H24.0233V4.22577L18.9999 1.36814L13.9765 4.22577V20.3095Z" fill="#474747"/>
<path d="M19.4968 7.29507V6.33356H18.5032V7.29507H17.5078V8.25837H18.5032V9.22168H19.4968V8.25837H20.4922V7.29507H19.4968Z" fill="#E0E1E2"/>
<path d="M18.7274 10.4236H18.7163C18.3335 10.3864 17.9632 10.2708 17.63 10.0845C17.6194 10.0788 17.6101 10.071 17.6027 10.0617C17.5952 10.0524 17.5898 10.0417 17.5867 10.0304C17.5836 10.019 17.5829 10.0071 17.5846 9.99548C17.5863 9.98383 17.5904 9.97263 17.5967 9.96255C17.6087 9.94188 17.6288 9.92669 17.6524 9.9203C17.6761 9.91391 17.7013 9.91684 17.7227 9.92846C18.0335 10.103 18.3792 10.2112 18.7367 10.246C18.761 10.2487 18.7832 10.2606 18.7985 10.2791C18.8137 10.2975 18.8208 10.3211 18.8182 10.3446C18.8159 10.3664 18.8054 10.3865 18.7886 10.4011C18.7718 10.4157 18.75 10.4237 18.7274 10.4236ZM19.8248 10.3124C19.8021 10.3133 19.7799 10.3062 19.7623 10.2923C19.7447 10.2785 19.733 10.2589 19.7293 10.2372C19.7256 10.2155 19.7303 10.1933 19.7425 10.1748C19.7546 10.1562 19.7733 10.1426 19.7951 10.1366C20.1366 10.0295 20.4506 9.85342 20.7164 9.61992C20.7255 9.61197 20.7361 9.60584 20.7477 9.60189C20.7592 9.59794 20.7715 9.59625 20.7837 9.59692C20.796 9.59758 20.808 9.6006 20.819 9.60578C20.83 9.61096 20.8399 9.6182 20.848 9.6271C20.8564 9.63563 20.8629 9.64574 20.8671 9.65681C20.8713 9.66788 20.8731 9.67966 20.8724 9.69144C20.8717 9.70321 20.8686 9.71472 20.8631 9.72525C20.8576 9.73579 20.8499 9.74512 20.8406 9.75267C20.556 10.0037 20.2191 10.1928 19.8526 10.307C19.8438 10.3105 19.8343 10.3123 19.8248 10.3124ZM16.8552 9.38313C16.8405 9.38327 16.826 9.3801 16.8128 9.37387C16.7996 9.36765 16.7881 9.35853 16.7792 9.34725C16.5514 9.04639 16.3922 8.70216 16.3121 8.33731C16.3094 8.32587 16.3091 8.31403 16.3111 8.30247C16.3132 8.29091 16.3177 8.27988 16.3242 8.27002C16.3308 8.26015 16.3394 8.25166 16.3494 8.24504C16.3594 8.23842 16.3706 8.23381 16.3825 8.23147C16.3945 8.22883 16.4068 8.22849 16.4189 8.23049C16.4309 8.23249 16.4425 8.23679 16.4528 8.24312C16.4632 8.24946 16.4721 8.25772 16.4791 8.26742C16.4862 8.27712 16.4911 8.28807 16.4938 8.29964C16.5672 8.64025 16.7158 8.9615 16.9294 9.24142C16.9433 9.26054 16.949 9.28419 16.9452 9.30732C16.9414 9.33045 16.9284 9.35122 16.909 9.36519C16.8937 9.37695 16.8747 9.38328 16.8552 9.38313ZM21.4282 8.91135C21.4154 8.91173 21.4027 8.90928 21.3911 8.90417C21.3799 8.89949 21.3697 8.89271 21.3612 8.88421C21.3527 8.87572 21.346 8.86568 21.3416 8.85468C21.3371 8.84367 21.3349 8.83192 21.3351 8.82009C21.3354 8.80827 21.338 8.79661 21.3429 8.78577C21.4891 8.46854 21.5643 8.12497 21.5635 7.77762C21.5632 7.77452 21.5639 7.77141 21.5654 7.76865C21.5639 7.76655 21.5632 7.76401 21.5635 7.76148C21.5626 7.41374 21.4855 7.07014 21.3374 6.75333C21.3321 6.74264 21.3292 6.73105 21.3287 6.71924C21.3282 6.70743 21.3302 6.69565 21.3345 6.6846C21.3388 6.67354 21.3454 6.66345 21.3539 6.65492C21.3623 6.64638 21.3725 6.63959 21.3837 6.63493C21.4061 6.6257 21.4314 6.62521 21.4542 6.63357C21.477 6.64193 21.4956 6.65848 21.506 6.67978C21.6652 7.01902 21.7479 7.38713 21.7489 7.75968V7.77762C21.7494 8.15015 21.6692 8.51864 21.5135 8.85932C21.5056 8.87476 21.4935 8.8878 21.4784 8.89698C21.4634 8.90616 21.446 8.91113 21.4282 8.91135ZM16.3992 7.33992H16.3807C16.3686 7.33779 16.3572 7.33333 16.3469 7.3268C16.3367 7.32027 16.328 7.31181 16.3212 7.30192C16.3145 7.29203 16.3098 7.28093 16.3076 7.26927C16.3054 7.25761 16.3057 7.24564 16.3084 7.23408C16.386 6.86887 16.5434 6.52392 16.7699 6.22234C16.7844 6.20308 16.8063 6.19017 16.8306 6.18647C16.8549 6.18277 16.8798 6.18858 16.8997 6.20261C16.9196 6.21665 16.9329 6.23776 16.9368 6.26131C16.9406 6.28486 16.9346 6.30891 16.9201 6.32818C16.7081 6.60904 16.5614 6.93091 16.49 7.27175C16.485 7.29135 16.4733 7.30874 16.4569 7.32111C16.4404 7.33348 16.4201 7.34011 16.3992 7.33992ZM20.7664 5.94609C20.744 5.94631 20.7223 5.93866 20.7053 5.92456C20.4381 5.69233 20.1227 5.51803 19.7803 5.41331C19.7569 5.40589 19.7374 5.38993 19.726 5.36883C19.7146 5.34772 19.7121 5.32313 19.7191 5.3003C19.7268 5.27766 19.7433 5.25881 19.7651 5.24775C19.7869 5.2367 19.8123 5.23431 19.8359 5.2411C20.2029 5.354 20.541 5.54111 20.8276 5.79002C20.837 5.79757 20.8446 5.8069 20.8501 5.81744C20.8556 5.82797 20.8588 5.83948 20.8595 5.85125C20.8602 5.86302 20.8583 5.87481 20.8541 5.88588C20.8499 5.89695 20.8434 5.90706 20.835 5.91559C20.8269 5.92554 20.8164 5.93348 20.8045 5.93878C20.7926 5.94408 20.7795 5.94658 20.7664 5.94609ZM17.6616 5.64472C17.6413 5.64452 17.6217 5.63792 17.6057 5.62593C17.5897 5.61394 17.5782 5.59722 17.573 5.57832C17.5677 5.55941 17.569 5.53936 17.5767 5.52123C17.5843 5.5031 17.5978 5.48788 17.6152 5.47789C17.9475 5.28996 18.317 5.17199 18.6996 5.13168C18.7239 5.12915 18.7483 5.13603 18.7674 5.15082C18.7865 5.1656 18.7988 5.18709 18.8016 5.2106C18.8042 5.23434 18.7971 5.25812 18.7819 5.27689C18.7667 5.29566 18.7444 5.30792 18.72 5.31106C18.363 5.3476 18.018 5.45705 17.7079 5.63216C17.6941 5.64066 17.6779 5.64503 17.6616 5.64472Z" fill="#E0E1E2"/>
<path d="M22.9186 13.9055H15.0813V14.4436H22.9186V13.9055Z" fill="#474747"/>
<path d="M22.3087 20.8477H15.6911C15.6174 20.8477 15.5467 20.8194 15.4945 20.7689C15.4424 20.7184 15.4131 20.65 15.4131 20.5786V14.1745C15.4131 14.1032 15.4424 14.0347 15.4945 13.9843C15.5467 13.9338 15.6174 13.9055 15.6911 13.9055H22.3087C22.3824 13.9055 22.4532 13.9338 22.5053 13.9843C22.5574 14.0347 22.5867 14.1032 22.5867 14.1745V20.5786C22.5867 20.65 22.5574 20.7184 22.5053 20.7689C22.4532 20.8194 22.3824 20.8477 22.3087 20.8477ZM15.9692 20.3095H22.0306V14.4436H15.9692V20.3095Z" fill="#474747"/>
<path d="M19.278 14.1746H18.7219V20.5785H19.278V14.1746Z" fill="#474747"/>
<path d="M26.3035 8.61176H24.3015V9.14991H26.3035V8.61176Z" fill="#E0E1E2"/>
<path d="M26.3035 10.9725H24.3015V11.5107H26.3035V10.9725Z" fill="#E0E1E2"/>
<path d="M26.3035 13.335H24.3015V13.8732H26.3035V13.335Z" fill="#E0E1E2"/>
<path d="M26.3035 15.6975H24.3015V16.2357H26.3035V15.6975Z" fill="#E0E1E2"/>
<path d="M26.3035 18.0601H24.3015V18.5982H26.3035V18.0601Z" fill="#E0E1E2"/>
<path d="M28.3537 20.6683C28.3291 20.6683 28.3055 20.6589 28.2881 20.6421C28.2708 20.6253 28.261 20.6024 28.261 20.5787V20.4943C28.261 20.4706 28.2708 20.4477 28.2881 20.4309C28.3055 20.4141 28.3291 20.4046 28.3537 20.4046C28.3783 20.4046 28.4018 20.4141 28.4192 20.4309C28.4366 20.4477 28.4464 20.4706 28.4464 20.4943V20.5787C28.4459 20.6023 28.436 20.6248 28.4187 20.6416C28.4014 20.6583 28.3781 20.6679 28.3537 20.6683ZM28.3537 19.5077C28.3291 19.5077 28.3055 19.4983 28.2881 19.4814C28.2708 19.4646 28.261 19.4418 28.261 19.418V18.3417C28.261 18.3179 28.2708 18.2951 28.2881 18.2783C28.3055 18.2615 28.3291 18.252 28.3537 18.252C28.3783 18.252 28.4018 18.2615 28.4192 18.2783C28.4366 18.2951 28.4464 18.3179 28.4464 18.3417V19.418C28.4464 19.4418 28.4366 19.4646 28.4192 19.4814C28.4018 19.4983 28.3783 19.5077 28.3537 19.5077ZM28.3537 17.3551C28.3291 17.3551 28.3055 17.3456 28.2881 17.3288C28.2708 17.312 28.261 17.2892 28.261 17.2654V16.1891C28.261 16.1653 28.2708 16.1425 28.2881 16.1256C28.3055 16.1088 28.3291 16.0994 28.3537 16.0994C28.3783 16.0994 28.4018 16.1088 28.4192 16.1256C28.4366 16.1425 28.4464 16.1653 28.4464 16.1891V17.2654C28.4464 17.2892 28.4366 17.312 28.4192 17.3288C28.4018 17.3456 28.3783 17.3551 28.3537 17.3551ZM28.3537 15.2024C28.3291 15.2024 28.3055 15.193 28.2881 15.1762C28.2708 15.1594 28.261 15.1365 28.261 15.1127V14.0364C28.261 14.0126 28.2708 13.9898 28.2881 13.973C28.3055 13.9562 28.3291 13.9467 28.3537 13.9467C28.3783 13.9467 28.4018 13.9562 28.4192 13.973C28.4366 13.9898 28.4464 14.0126 28.4464 14.0364V15.1127C28.4464 15.1365 28.4366 15.1594 28.4192 15.1762C28.4018 15.193 28.3783 15.2024 28.3537 15.2024ZM28.3537 13.0498C28.3291 13.0498 28.3055 13.0404 28.2881 13.0235C28.2708 13.0067 28.261 12.9839 28.261 12.9601V11.8838C28.261 11.86 28.2708 11.8372 28.2881 11.8204C28.3055 11.8036 28.3291 11.7941 28.3537 11.7941C28.3783 11.7941 28.4018 11.8036 28.4192 11.8204C28.4366 11.8372 28.4464 11.86 28.4464 11.8838V12.9601C28.4464 12.9839 28.4366 13.0067 28.4192 13.0235C28.4018 13.0404 28.3783 13.0498 28.3537 13.0498ZM28.3537 10.8972C28.3291 10.8972 28.3055 10.8877 28.2881 10.8709C28.2708 10.8541 28.261 10.8313 28.261 10.8075V9.73116C28.261 9.70737 28.2708 9.68456 28.2881 9.66774C28.3055 9.65092 28.3291 9.64147 28.3537 9.64147C28.3783 9.64147 28.4018 9.65092 28.4192 9.66774C28.4366 9.68456 28.4464 9.70737 28.4464 9.73116V10.8075C28.4464 10.8313 28.4366 10.8541 28.4192 10.8709C28.4018 10.8877 28.3783 10.8972 28.3537 10.8972ZM28.3537 8.74453C28.3291 8.74453 28.3055 8.73509 28.2881 8.71827C28.2708 8.70144 28.261 8.67863 28.261 8.65484V7.57852C28.261 7.55474 28.2708 7.53192 28.2881 7.5151C28.3055 7.49828 28.3291 7.48883 28.3537 7.48883C28.3783 7.48883 28.4018 7.49828 28.4192 7.5151C28.4366 7.53192 28.4464 7.55474 28.4464 7.57852V8.65484C28.4464 8.67863 28.4366 8.70144 28.4192 8.71827C28.4018 8.73509 28.3783 8.74453 28.3537 8.74453Z" fill="#E0E1E2"/>
<path d="M13.6985 8.61176H11.6965V9.14991H13.6985V8.61176Z" fill="#E0E1E2"/>
<path d="M13.6985 10.9725H11.6965V11.5107H13.6985V10.9725Z" fill="#E0E1E2"/>
<path d="M13.6985 13.335H11.6965V13.8732H13.6985V13.335Z" fill="#E0E1E2"/>
<path d="M13.6985 15.6975H11.6965V16.2357H13.6985V15.6975Z" fill="#E0E1E2"/>
<path d="M13.6985 18.0601H11.6965V18.5982H13.6985V18.0601Z" fill="#E0E1E2"/>
<path d="M9.64639 20.6683C9.62196 20.6679 9.59866 20.6583 9.58138 20.6416C9.5641 20.6248 9.55419 20.6023 9.55371 20.5787V20.4943C9.55371 20.4706 9.56347 20.4477 9.58086 20.4309C9.59824 20.4141 9.62181 20.4046 9.64639 20.4046C9.67097 20.4046 9.69455 20.4141 9.71193 20.4309C9.72931 20.4477 9.73908 20.4706 9.73908 20.4943V20.5787C9.73908 20.6024 9.72931 20.6253 9.71193 20.6421C9.69455 20.6589 9.67097 20.6683 9.64639 20.6683ZM9.64639 19.5077C9.62181 19.5077 9.59824 19.4983 9.58086 19.4814C9.56347 19.4646 9.55371 19.4418 9.55371 19.418V18.3417C9.55371 18.3179 9.56347 18.2951 9.58086 18.2783C9.59824 18.2615 9.62181 18.252 9.64639 18.252C9.67097 18.252 9.69455 18.2615 9.71193 18.2783C9.72931 18.2951 9.73908 18.3179 9.73908 18.3417V19.418C9.73908 19.4418 9.72931 19.4646 9.71193 19.4814C9.69455 19.4983 9.67097 19.5077 9.64639 19.5077ZM9.64639 17.3551C9.62181 17.3551 9.59824 17.3456 9.58086 17.3288C9.56347 17.312 9.55371 17.2892 9.55371 17.2654V16.1891C9.55371 16.1653 9.56347 16.1425 9.58086 16.1256C9.59824 16.1088 9.62181 16.0994 9.64639 16.0994C9.67097 16.0994 9.69455 16.1088 9.71193 16.1256C9.72931 16.1425 9.73908 16.1653 9.73908 16.1891V17.2654C9.73908 17.2892 9.72931 17.312 9.71193 17.3288C9.69455 17.3456 9.67097 17.3551 9.64639 17.3551ZM9.64639 15.2024C9.62181 15.2024 9.59824 15.193 9.58086 15.1762C9.56347 15.1594 9.55371 15.1365 9.55371 15.1127V14.0364C9.55371 14.0126 9.56347 13.9898 9.58086 13.973C9.59824 13.9562 9.62181 13.9467 9.64639 13.9467C9.67097 13.9467 9.69455 13.9562 9.71193 13.973C9.72931 13.9898 9.73908 14.0126 9.73908 14.0364V15.1127C9.73908 15.1365 9.72931 15.1594 9.71193 15.1762C9.69455 15.193 9.67097 15.2024 9.64639 15.2024ZM9.64639 13.0498C9.62181 13.0498 9.59824 13.0404 9.58086 13.0235C9.56347 13.0067 9.55371 12.9839 9.55371 12.9601V11.8838C9.55371 11.86 9.56347 11.8372 9.58086 11.8204C9.59824 11.8036 9.62181 11.7941 9.64639 11.7941C9.67097 11.7941 9.69455 11.8036 9.71193 11.8204C9.72931 11.8372 9.73908 11.86 9.73908 11.8838V12.9601C9.73908 12.9839 9.72931 13.0067 9.71193 13.0235C9.69455 13.0404 9.67097 13.0498 9.64639 13.0498ZM9.64639 10.8972C9.62181 10.8972 9.59824 10.8877 9.58086 10.8709C9.56347 10.8541 9.55371 10.8313 9.55371 10.8075V9.73116C9.55371 9.70737 9.56347 9.68456 9.58086 9.66774C9.59824 9.65092 9.62181 9.64147 9.64639 9.64147C9.67097 9.64147 9.69455 9.65092 9.71193 9.66774C9.72931 9.68456 9.73908 9.70737 9.73908 9.73116V10.8075C9.73908 10.8313 9.72931 10.8541 9.71193 10.8709C9.69455 10.8877 9.67097 10.8972 9.64639 10.8972ZM9.64639 8.74453C9.62181 8.74453 9.59824 8.73509 9.58086 8.71827C9.56347 8.70144 9.55371 8.67863 9.55371 8.65484V7.57852C9.55371 7.55474 9.56347 7.53192 9.58086 7.5151C9.59824 7.49828 9.62181 7.48883 9.64639 7.48883C9.67097 7.48883 9.69455 7.49828 9.71193 7.5151C9.72931 7.53192 9.73908 7.55474 9.73908 7.57852V8.65484C9.73908 8.67863 9.72931 8.70144 9.71193 8.71827C9.69455 8.73509 9.67097 8.74453 9.64639 8.74453Z" fill="#E0E1E2"/>
<path d="M29.5955 20.8477H24.3015C24.2277 20.8477 24.157 20.8194 24.1049 20.7689C24.0527 20.7184 24.0234 20.65 24.0234 20.5786V7.30045C24.0234 7.22909 24.0527 7.16065 24.1049 7.11018C24.157 7.05972 24.2277 7.03137 24.3015 7.03137H29.5955C29.6693 7.03137 29.74 7.05972 29.7921 7.11018C29.8443 7.16065 29.8736 7.22909 29.8736 7.30045V20.5786C29.8736 20.65 29.8443 20.7184 29.7921 20.7689C29.74 20.8194 29.6693 20.8477 29.5955 20.8477ZM24.5795 20.3095H29.3175V7.56953H24.5795V20.3095Z" fill="#474747"/>
<path d="M13.6986 20.8477H8.40451C8.33077 20.8477 8.26005 20.8194 8.2079 20.7689C8.15576 20.7184 8.12646 20.65 8.12646 20.5786V7.30045C8.12646 7.22909 8.15576 7.16065 8.2079 7.11018C8.26005 7.05972 8.33077 7.03137 8.40451 7.03137H13.6986C13.7723 7.03137 13.843 7.05972 13.8952 7.11018C13.9473 7.16065 13.9766 7.22909 13.9766 7.30045V20.5786C13.9766 20.65 13.9473 20.7184 13.8952 20.7689C13.843 20.8194 13.7723 20.8477 13.6986 20.8477ZM8.68256 20.3095H13.4205V7.56953H8.68256V20.3095Z" fill="#474747"/>
</svg>
