<svg width="38" height="22" viewBox="0 0 38 22" fill="none" xmlns="http://www.w3.org/2000/svg">
<g clip-path="url(#clip0_25_736)">
<path d="M13.6985 6.85541H12.5734V21.2299H13.6985V6.85541Z" fill="#FF8DFE"/>
<path d="M25.4266 6.85541H24.3015V21.2299H25.4266V6.85541Z" fill="#FF8DFE"/>
<path d="M14.7755 20.1013V2.69775L13.6985 3.35995V21.2296H24.3015V20.1013H14.7755Z" fill="#FF8DFE"/>
<path d="M19 10.1548C20.467 10.1548 21.6563 8.9089 21.6563 7.37202C21.6563 5.83513 20.467 4.58923 19 4.58923C17.533 4.58923 16.3437 5.83513 16.3437 7.37202C16.3437 8.9089 17.533 10.1548 19 10.1548Z" fill="#FF8DFE"/>
<path d="M24.3014 21.5208H13.6985C13.6248 21.5208 13.5541 21.4902 13.5019 21.4355C13.4498 21.3809 13.4205 21.3068 13.4205 21.2296V3.35994C13.4204 3.30925 13.433 3.25944 13.4571 3.21547C13.4812 3.17151 13.5158 3.13494 13.5576 3.10943L18.8591 -0.154951C18.9017 -0.181643 18.9504 -0.19574 19 -0.19574C19.0496 -0.19574 19.0983 -0.181643 19.1409 -0.154951L24.4423 3.10943C24.4841 3.13494 24.5188 3.17151 24.5429 3.21547C24.5669 3.25944 24.5796 3.30925 24.5795 3.35994V21.2296C24.5795 21.3068 24.5502 21.3809 24.4981 21.4355C24.4459 21.4902 24.3752 21.5208 24.3014 21.5208ZM13.9766 20.9383H24.0234V3.52694L19 0.433452L13.9766 3.52694V20.9383Z" fill="#FF9CFE"/>
<path d="M19.4968 6.84959V5.80872H18.5032V6.84959H17.5078V7.8924H18.5032V8.93522H19.4968V7.8924H20.4922V6.84959H19.4968Z" fill="#FF8DFE"/>
<path d="M18.7275 10.2363H18.7164C18.3336 10.196 17.9633 10.0709 17.6302 9.8693C17.6196 9.86306 17.6103 9.85466 17.6028 9.84459C17.5954 9.83452 17.5899 9.82298 17.5868 9.81067C17.5837 9.79835 17.583 9.78551 17.5847 9.77289C17.5864 9.76028 17.5905 9.74816 17.5968 9.73724C17.6089 9.71487 17.6289 9.69842 17.6525 9.69151C17.6762 9.68459 17.7015 9.68777 17.7228 9.70035C18.0336 9.88925 18.3793 10.0064 18.7368 10.0441C18.7611 10.047 18.7833 10.0599 18.7986 10.0799C18.8139 10.0999 18.821 10.1254 18.8184 10.1509C18.8161 10.1744 18.8055 10.1962 18.7887 10.212C18.7719 10.2278 18.7501 10.2364 18.7275 10.2363ZM19.8249 10.1159C19.8022 10.1169 19.78 10.1092 19.7624 10.0942C19.7448 10.0792 19.7331 10.058 19.7294 10.0346C19.7258 10.0111 19.7304 9.98707 19.7426 9.96699C19.7547 9.94691 19.7734 9.93219 19.7952 9.92561C20.1367 9.80975 20.4508 9.61911 20.7165 9.36634C20.7256 9.35773 20.7362 9.35109 20.7478 9.34682C20.7594 9.34254 20.7716 9.34071 20.7839 9.34143C20.7961 9.34216 20.8081 9.34542 20.8191 9.35102C20.8301 9.35663 20.84 9.36448 20.8481 9.3741C20.8565 9.38334 20.863 9.39429 20.8672 9.40627C20.8714 9.41825 20.8733 9.43101 20.8726 9.44376C20.8719 9.4565 20.8687 9.46896 20.8632 9.48036C20.8577 9.49177 20.8501 9.50187 20.8407 9.51004C20.5562 9.78184 20.2192 9.98647 19.8527 10.1101C19.8439 10.1139 19.8344 10.1159 19.8249 10.1159ZM16.8553 9.11C16.8407 9.11015 16.8262 9.10672 16.813 9.09998C16.7998 9.09324 16.7883 9.08337 16.7793 9.07116C16.5515 8.74547 16.3923 8.37282 16.3122 7.97786C16.3095 7.96548 16.3092 7.95266 16.3113 7.94015C16.3133 7.92763 16.3178 7.91569 16.3244 7.90501C16.3309 7.89433 16.3395 7.88514 16.3495 7.87797C16.3595 7.87081 16.3708 7.86581 16.3827 7.86328C16.3946 7.86042 16.4069 7.86006 16.419 7.86223C16.4311 7.86439 16.4426 7.86904 16.4529 7.8759C16.4633 7.88276 16.4722 7.8917 16.4792 7.9022C16.4863 7.9127 16.4912 7.92455 16.4939 7.93708C16.5673 8.30581 16.7159 8.65357 16.9295 8.95659C16.9435 8.97729 16.9491 9.0029 16.9453 9.02794C16.9415 9.05297 16.9285 9.07546 16.9091 9.09058C16.8938 9.10331 16.8748 9.11016 16.8553 9.11ZM21.4283 8.59928C21.4155 8.59969 21.4029 8.59704 21.3912 8.59151C21.38 8.58644 21.3699 8.5791 21.3614 8.5699C21.3529 8.56071 21.3462 8.54984 21.3417 8.53793C21.3372 8.52602 21.335 8.51329 21.3353 8.50049C21.3355 8.48769 21.3381 8.47507 21.343 8.46334C21.4892 8.11992 21.5644 7.74799 21.5636 7.37198C21.5633 7.36862 21.564 7.36525 21.5655 7.36227C21.564 7.35999 21.5634 7.35724 21.5636 7.3545C21.5627 6.97806 21.4856 6.6061 21.3375 6.26314C21.3323 6.25157 21.3293 6.23902 21.3288 6.22624C21.3283 6.21345 21.3303 6.2007 21.3346 6.18873C21.339 6.17677 21.3456 6.16584 21.354 6.1566C21.3625 6.14736 21.3726 6.14001 21.3838 6.13497C21.4063 6.12497 21.4315 6.12445 21.4543 6.13349C21.4771 6.14254 21.4957 6.16046 21.5062 6.18352C21.6653 6.55076 21.7481 6.94925 21.749 7.35256V7.37198C21.7495 7.77525 21.6693 8.17415 21.5136 8.54296C21.5057 8.55968 21.4936 8.57378 21.4785 8.58372C21.4635 8.59366 21.4461 8.59905 21.4283 8.59928ZM16.3993 6.89815H16.3808C16.3688 6.89584 16.3573 6.89101 16.3471 6.88394C16.3368 6.87687 16.3281 6.86771 16.3213 6.85701C16.3146 6.84631 16.31 6.83428 16.3078 6.82166C16.3056 6.80904 16.3058 6.79609 16.3085 6.78357C16.3861 6.38822 16.5435 6.0148 16.7701 5.68833C16.7846 5.66747 16.8064 5.6535 16.8307 5.64949C16.8551 5.64549 16.8799 5.65177 16.8998 5.66696C16.9197 5.68216 16.9331 5.70501 16.9369 5.73051C16.9407 5.756 16.9347 5.78204 16.9202 5.8029C16.7083 6.10693 16.5616 6.45538 16.4902 6.82435C16.4852 6.84557 16.4735 6.86439 16.457 6.87778C16.4405 6.89117 16.4202 6.89835 16.3993 6.89815ZM20.7666 5.38927C20.7441 5.3895 20.7224 5.38123 20.7054 5.36597C20.4382 5.11457 20.1228 4.92587 19.7804 4.81252C19.757 4.80448 19.7375 4.78721 19.7261 4.76436C19.7147 4.74151 19.7122 4.7149 19.7192 4.69017C19.7269 4.66566 19.7434 4.64526 19.7652 4.63329C19.787 4.62132 19.8124 4.61874 19.836 4.62609C20.203 4.74831 20.5411 4.95086 20.8277 5.22032C20.8371 5.22849 20.8447 5.23859 20.8502 5.25C20.8557 5.2614 20.8589 5.27386 20.8596 5.2866C20.8603 5.29935 20.8585 5.31211 20.8543 5.32409C20.8501 5.33607 20.8436 5.34702 20.8351 5.35626C20.827 5.36702 20.8165 5.37562 20.8046 5.38135C20.7927 5.38709 20.7797 5.3898 20.7666 5.38927ZM17.6617 5.06302C17.6415 5.06281 17.6218 5.05567 17.6059 5.04269C17.5899 5.02971 17.5784 5.0116 17.5731 4.99114C17.5679 4.97067 17.5692 4.94897 17.5768 4.92934C17.5844 4.90971 17.5979 4.89324 17.6153 4.88242C17.9476 4.67898 18.3171 4.55127 18.6997 4.50763C18.724 4.5049 18.7484 4.51235 18.7675 4.52836C18.7866 4.54436 18.7989 4.56762 18.8017 4.59308C18.8043 4.61877 18.7973 4.64452 18.782 4.66484C18.7668 4.68515 18.7446 4.69843 18.7201 4.70183C18.3631 4.74138 18.0181 4.85986 17.708 5.04943C17.6942 5.05863 17.6781 5.06336 17.6617 5.06302Z" fill="#FF8DFE"/>
<path d="M22.9186 14.0056H15.0814V14.5881H22.9186V14.0056Z" fill="#FF9CFE"/>
<path d="M22.3088 21.5208H15.6912C15.6175 21.5208 15.5467 21.4901 15.4946 21.4355C15.4424 21.3809 15.4131 21.3068 15.4131 21.2295V14.2968C15.4131 14.2196 15.4424 14.1455 15.4946 14.0909C15.5467 14.0362 15.6175 14.0056 15.6912 14.0056H22.3088C22.3825 14.0056 22.4532 14.0362 22.5054 14.0909C22.5575 14.1455 22.5868 14.2196 22.5868 14.2968V21.2295C22.5868 21.3068 22.5575 21.3809 22.5054 21.4355C22.4532 21.4901 22.3825 21.5208 22.3088 21.5208ZM15.9692 20.9382H22.0307V14.5881H15.9692V20.9382Z" fill="#FF9CFE"/>
<path d="M19.278 14.2969H18.7219V21.2294H19.278V14.2969Z" fill="#FF9CFE"/>
<path d="M26.3034 8.27496H24.3015V8.85754H26.3034V8.27496Z" fill="#FF8DFE"/>
<path d="M26.3034 10.8306H24.3015V11.4131H26.3034V10.8306Z" fill="#FF8DFE"/>
<path d="M26.3034 13.3881H24.3015V13.9706H26.3034V13.3881Z" fill="#FF8DFE"/>
<path d="M26.3034 15.9456H24.3015V16.5281H26.3034V15.9456Z" fill="#FF8DFE"/>
<path d="M26.3034 18.5031H24.3015V19.0857H26.3034V18.5031Z" fill="#FF8DFE"/>
<path d="M28.3535 21.3267C28.329 21.3267 28.3054 21.3164 28.288 21.2982C28.2706 21.28 28.2609 21.2553 28.2609 21.2296V21.1383C28.2609 21.1126 28.2706 21.0879 28.288 21.0696C28.3054 21.0514 28.329 21.0412 28.3535 21.0412C28.3781 21.0412 28.4017 21.0514 28.4191 21.0696C28.4365 21.0879 28.4462 21.1126 28.4462 21.1383V21.2296C28.4458 21.2552 28.4358 21.2796 28.4186 21.2977C28.4013 21.3158 28.378 21.3262 28.3535 21.3267ZM28.3535 20.0702C28.329 20.0702 28.3054 20.06 28.288 20.0418C28.2706 20.0236 28.2609 19.9989 28.2609 19.9731V18.808C28.2609 18.7822 28.2706 18.7575 28.288 18.7393C28.3054 18.7211 28.329 18.7109 28.3535 18.7109C28.3781 18.7109 28.4017 18.7211 28.4191 18.7393C28.4365 18.7575 28.4462 18.7822 28.4462 18.808V19.9731C28.4462 19.9989 28.4365 20.0236 28.4191 20.0418C28.4017 20.06 28.3781 20.0702 28.3535 20.0702ZM28.3535 17.7399C28.329 17.7399 28.3054 17.7297 28.288 17.7115C28.2706 17.6933 28.2609 17.6686 28.2609 17.6428V16.4777C28.2609 16.4519 28.2706 16.4272 28.288 16.409C28.3054 16.3908 28.329 16.3806 28.3535 16.3806C28.3781 16.3806 28.4017 16.3908 28.4191 16.409C28.4365 16.4272 28.4462 16.4519 28.4462 16.4777V17.6428C28.4462 17.6686 28.4365 17.6933 28.4191 17.7115C28.4017 17.7297 28.3781 17.7399 28.3535 17.7399ZM28.3535 15.4096C28.329 15.4096 28.3054 15.3994 28.288 15.3812C28.2706 15.363 28.2609 15.3383 28.2609 15.3125V14.1474C28.2609 14.1216 28.2706 14.0969 28.288 14.0787C28.3054 14.0605 28.329 14.0503 28.3535 14.0503C28.3781 14.0503 28.4017 14.0605 28.4191 14.0787C28.4365 14.0969 28.4462 14.1216 28.4462 14.1474V15.3125C28.4462 15.3383 28.4365 15.363 28.4191 15.3812C28.4017 15.3994 28.3781 15.4096 28.3535 15.4096ZM28.3535 13.0793C28.329 13.0793 28.3054 13.0691 28.288 13.0509C28.2706 13.0327 28.2609 13.008 28.2609 12.9822V11.817C28.2609 11.7913 28.2706 11.7666 28.288 11.7484C28.3054 11.7302 28.329 11.72 28.3535 11.72C28.3781 11.72 28.4017 11.7302 28.4191 11.7484C28.4365 11.7666 28.4462 11.7913 28.4462 11.817V12.9822C28.4462 13.008 28.4365 13.0327 28.4191 13.0509C28.4017 13.0691 28.3781 13.0793 28.3535 13.0793ZM28.3535 10.749C28.329 10.749 28.3054 10.7388 28.288 10.7206C28.2706 10.7023 28.2609 10.6776 28.2609 10.6519V9.48674C28.2609 9.46098 28.2706 9.43629 28.288 9.41808C28.3054 9.39987 28.329 9.38964 28.3535 9.38964C28.3781 9.38964 28.4017 9.39987 28.4191 9.41808C28.4365 9.43629 28.4462 9.46098 28.4462 9.48674V10.6519C28.4462 10.6776 28.4365 10.7023 28.4191 10.7206C28.4017 10.7388 28.3781 10.749 28.3535 10.749ZM28.3535 8.41868C28.329 8.41868 28.3054 8.40845 28.288 8.39024C28.2706 8.37203 28.2609 8.34733 28.2609 8.32158V7.15642C28.2609 7.13067 28.2706 7.10597 28.288 7.08777C28.3054 7.06956 28.329 7.05933 28.3535 7.05933C28.3781 7.05933 28.4017 7.06956 28.4191 7.08777C28.4365 7.10597 28.4462 7.13067 28.4462 7.15642V8.32158C28.4462 8.34733 28.4365 8.37203 28.4191 8.39024C28.4017 8.40845 28.3781 8.41868 28.3535 8.41868Z" fill="#FF8DFE"/>
<path d="M13.6985 8.27496H11.6966V8.85754H13.6985V8.27496Z" fill="#FF8DFE"/>
<path d="M13.6985 10.8306H11.6966V11.4131H13.6985V10.8306Z" fill="#FF8DFE"/>
<path d="M13.6985 13.3881H11.6966V13.9706H13.6985V13.3881Z" fill="#FF8DFE"/>
<path d="M13.6985 15.9456H11.6966V16.5281H13.6985V15.9456Z" fill="#FF8DFE"/>
<path d="M13.6985 18.5031H11.6966V19.0857H13.6985V18.5031Z" fill="#FF8DFE"/>
<path d="M9.64645 21.3267C9.62202 21.3262 9.59872 21.3158 9.58144 21.2977C9.56416 21.2796 9.55425 21.2552 9.55377 21.2296V21.1383C9.55377 21.1126 9.56354 21.0879 9.58092 21.0696C9.5983 21.0514 9.62187 21.0412 9.64645 21.0412C9.67104 21.0412 9.69461 21.0514 9.71199 21.0696C9.72937 21.0879 9.73914 21.1126 9.73914 21.1383V21.2296C9.73914 21.2553 9.72937 21.28 9.71199 21.2982C9.69461 21.3164 9.67104 21.3267 9.64645 21.3267ZM9.64645 20.0702C9.62187 20.0702 9.5983 20.06 9.58092 20.0418C9.56354 20.0236 9.55377 19.9989 9.55377 19.9731V18.808C9.55377 18.7822 9.56354 18.7575 9.58092 18.7393C9.5983 18.7211 9.62187 18.7109 9.64645 18.7109C9.67104 18.7109 9.69461 18.7211 9.71199 18.7393C9.72937 18.7575 9.73914 18.7822 9.73914 18.808V19.9731C9.73914 19.9989 9.72937 20.0236 9.71199 20.0418C9.69461 20.06 9.67104 20.0702 9.64645 20.0702ZM9.64645 17.7399C9.62187 17.7399 9.5983 17.7297 9.58092 17.7115C9.56354 17.6933 9.55377 17.6686 9.55377 17.6428V16.4777C9.55377 16.4519 9.56354 16.4272 9.58092 16.409C9.5983 16.3908 9.62187 16.3806 9.64645 16.3806C9.67104 16.3806 9.69461 16.3908 9.71199 16.409C9.72937 16.4272 9.73914 16.4519 9.73914 16.4777V17.6428C9.73914 17.6686 9.72937 17.6933 9.71199 17.7115C9.69461 17.7297 9.67104 17.7399 9.64645 17.7399ZM9.64645 15.4096C9.62187 15.4096 9.5983 15.3994 9.58092 15.3812C9.56354 15.363 9.55377 15.3383 9.55377 15.3125V14.1474C9.55377 14.1216 9.56354 14.0969 9.58092 14.0787C9.5983 14.0605 9.62187 14.0503 9.64645 14.0503C9.67104 14.0503 9.69461 14.0605 9.71199 14.0787C9.72937 14.0969 9.73914 14.1216 9.73914 14.1474V15.3125C9.73914 15.3383 9.72937 15.363 9.71199 15.3812C9.69461 15.3994 9.67104 15.4096 9.64645 15.4096ZM9.64645 13.0793C9.62187 13.0793 9.5983 13.0691 9.58092 13.0509C9.56354 13.0327 9.55377 13.008 9.55377 12.9822V11.817C9.55377 11.7913 9.56354 11.7666 9.58092 11.7484C9.5983 11.7302 9.62187 11.72 9.64645 11.72C9.67104 11.72 9.69461 11.7302 9.71199 11.7484C9.72937 11.7666 9.73914 11.7913 9.73914 11.817V12.9822C9.73914 13.008 9.72937 13.0327 9.71199 13.0509C9.69461 13.0691 9.67104 13.0793 9.64645 13.0793ZM9.64645 10.749C9.62187 10.749 9.5983 10.7388 9.58092 10.7206C9.56354 10.7023 9.55377 10.6776 9.55377 10.6519V9.48674C9.55377 9.46098 9.56354 9.43629 9.58092 9.41808C9.5983 9.39987 9.62187 9.38964 9.64645 9.38964C9.67104 9.38964 9.69461 9.39987 9.71199 9.41808C9.72937 9.43629 9.73914 9.46098 9.73914 9.48674V10.6519C9.73914 10.6776 9.72937 10.7023 9.71199 10.7206C9.69461 10.7388 9.67104 10.749 9.64645 10.749ZM9.64645 8.41868C9.62187 8.41868 9.5983 8.40845 9.58092 8.39024C9.56354 8.37203 9.55377 8.34733 9.55377 8.32158V7.15642C9.55377 7.13067 9.56354 7.10597 9.58092 7.08777C9.5983 7.06956 9.62187 7.05933 9.64645 7.05933C9.67104 7.05933 9.69461 7.06956 9.71199 7.08777C9.72937 7.10597 9.73914 7.13067 9.73914 7.15642V8.32158C9.73914 8.34733 9.72937 8.37203 9.71199 8.39024C9.69461 8.40845 9.67104 8.41868 9.64645 8.41868Z" fill="#FF8DFE"/>
<path d="M29.5955 21.5208H24.3015C24.2277 21.5208 24.157 21.4901 24.1049 21.4355C24.0527 21.3809 24.0234 21.3068 24.0234 21.2295V6.85538C24.0234 6.77812 24.0527 6.70403 24.1049 6.6494C24.157 6.59478 24.2277 6.56409 24.3015 6.56409H29.5955C29.6693 6.56409 29.74 6.59478 29.7921 6.6494C29.8443 6.70403 29.8736 6.77812 29.8736 6.85538V21.2295C29.8736 21.3068 29.8443 21.3809 29.7921 21.4355C29.74 21.4901 29.6693 21.5208 29.5955 21.5208ZM24.5795 20.9382H29.3175V7.14667H24.5795V20.9382Z" fill="#FF9CFE"/>
<path d="M13.6986 21.5208H8.40451C8.33077 21.5208 8.26005 21.4901 8.2079 21.4355C8.15576 21.3809 8.12646 21.3068 8.12646 21.2295V6.85538C8.12646 6.77812 8.15576 6.70403 8.2079 6.6494C8.26005 6.59478 8.33077 6.56409 8.40451 6.56409H13.6986C13.7723 6.56409 13.843 6.59478 13.8952 6.6494C13.9473 6.70403 13.9766 6.77812 13.9766 6.85538V21.2295C13.9766 21.3068 13.9473 21.3809 13.8952 21.4355C13.843 21.4901 13.7723 21.5208 13.6986 21.5208ZM8.68256 20.9382H13.4205V7.14667H8.68256V20.9382Z" fill="#FF9CFE"/>
</g>
<defs>
<clipPath id="clip0_25_736">
<rect width="38" height="22" fill="white"/>
</clipPath>
</defs>
</svg>
