<svg width="20" height="20" viewBox="0 0 20 20" fill="none" xmlns="http://www.w3.org/2000/svg">
<path fill-rule="evenodd" clip-rule="evenodd" d="M10 1.39535C5.24779 1.39535 1.39535 5.24779 1.39535 10C1.39535 11.3778 1.71863 12.678 2.29284 13.8308C2.52329 14.2935 2.61204 14.8468 2.46663 15.3902L1.91258 17.4609C1.81082 17.8412 2.15875 18.1892 2.53906 18.0874L4.6098 17.5334C5.15324 17.388 5.70652 17.4767 6.16922 17.7072C7.32206 18.2814 8.62223 18.6047 10 18.6047C14.7522 18.6047 18.6047 14.7522 18.6047 10C18.6047 5.24779 14.7522 1.39535 10 1.39535ZM0 10C0 4.47715 4.47715 0 10 0C15.5229 0 20 4.47715 20 10C20 15.5229 15.5229 20 10 20C8.40158 20 6.88886 19.6245 5.54712 18.9562C5.34689 18.8565 5.14246 18.8353 4.97046 18.8813L2.89972 19.4353C1.4822 19.8146 0.185367 18.5178 0.564651 17.1003L1.1187 15.0296C1.16473 14.8576 1.14356 14.6531 1.04384 14.4529C0.375544 13.1112 0 11.5984 0 10ZM5.5814 8.60465C5.5814 8.21935 5.89376 7.90698 6.27907 7.90698H13.7209C14.1062 7.90698 14.4186 8.21935 14.4186 8.60465C14.4186 8.98995 14.1062 9.30233 13.7209 9.30233H6.27907C5.89376 9.30233 5.5814 8.98995 5.5814 8.60465ZM5.5814 11.8605C5.5814 11.4752 5.89376 11.1628 6.27907 11.1628H11.3953C11.7807 11.1628 12.093 11.4752 12.093 11.8605C12.093 12.2458 11.7807 12.5581 11.3953 12.5581H6.27907C5.89376 12.5581 5.5814 12.2458 5.5814 11.8605Z" fill="#FF9CFE"/>
</svg>
